<?xml version="1.0" encoding="UTF-8" standalone="no"?>
<svg
   t="1777221153254"
   class="icon"
   viewBox="0 0 1024 1024"
   version="1.1"
   p-id="6735"
   width="200"
   height="200"
   id="svg3"
   sodipodi:docname="adjust.svg"
   inkscape:version="1.4.3 (0d15f75, 2025-12-25)"
   xmlns:inkscape="http://www.inkscape.org/namespaces/inkscape"
   xmlns:sodipodi="http://sodipodi.sourceforge.net/DTD/sodipodi-0.dtd"
   xmlns="http://www.w3.org/2000/svg"
   xmlns:svg="http://www.w3.org/2000/svg">
  <defs
     id="defs3" />
  <sodipodi:namedview
     id="namedview3"
     pagecolor="#ffffff"
     bordercolor="#666666"
     borderopacity="1.0"
     inkscape:showpageshadow="2"
     inkscape:pageopacity="0.0"
     inkscape:pagecheckerboard="0"
     inkscape:deskcolor="#d1d1d1"
     inkscape:zoom="4.435"
     inkscape:cx="28.410372"
     inkscape:cy="110.48478"
     inkscape:window-width="3840"
     inkscape:window-height="2036"
     inkscape:window-x="2548"
     inkscape:window-y="-12"
     inkscape:window-maximized="1"
     inkscape:current-layer="svg3" />
  <path
     d="m 718.70288,218.21789 c 0,54.64433 31.22535,93.67601 78.06334,109.28867 v 593.28138 c 0,23.419 15.61266,39.03167 39.03167,39.03167 23.41901,0 39.03167,-15.61267 39.03167,-39.03167 V 327.50656 c 46.83801,-15.61266 78.06333,-62.45067 78.06333,-109.28867 0,-62.45068 -54.64432,-117.095 -117.095,-117.095 -62.45068,0 -117.09501,54.64432 -117.09501,117.095 z m 156.12668,0 c 0,23.41901 -15.61266,39.03167 -39.03167,39.03167 -23.41901,0 -39.03167,-15.61266 -39.03167,-39.03167 0,-23.41901 15.61266,-39.03167 39.03167,-39.03167 23.41901,0 39.03167,15.61266 39.03167,39.03167 z"
     p-id="6736"
     id="path1"
     style="stroke-width:1.21975" />
  <path
     d="M 562.5762,920.78794 V 639.75992 c 46.83801,-15.61266 78.06334,-62.45068 78.06334,-109.28868 0,-46.838 -31.22533,-93.676 -78.06334,-109.28868 V 140.15455 c 0,-23.41901 -15.61267,-39.03166 -39.03166,-39.03166 -23.41901,0 -39.03167,15.61265 -39.03167,39.03166 v 281.02801 c -46.838,15.61268 -78.06334,62.45068 -78.06334,109.28868 0,46.838 31.22534,93.67602 78.06334,109.28868 v 281.02802 c 0,23.419 15.61266,39.03167 39.03167,39.03167 23.41899,0 39.03166,-15.61267 39.03166,-39.03167 z m -78.06333,-390.3167 c 0,-23.41899 15.61266,-39.03166 39.03167,-39.03166 23.41899,0 39.03166,15.61267 39.03166,39.03166 0,23.41901 -15.61267,39.03167 -39.03166,39.03167 -23.41901,0 -39.03167,-15.61266 -39.03167,-39.03167 z"
     p-id="6737"
     id="path2"
     style="stroke-width:1.21975" />
  <path
     d="m 328.38619,842.7246 c 0,-54.64433 -31.22534,-93.676 -78.06334,-109.28867 V 140.15455 c 0,-23.41901 -15.61267,-39.03166 -39.03167,-39.03166 -23.419,0 -39.03167,15.61265 -39.03167,39.03166 V 733.43593 C 125.4215,749.0486 94.196166,795.8866 94.196166,842.7246 c 0,62.45067 54.644344,117.09501 117.095014,117.09501 62.45067,0 117.09501,-54.64434 117.09501,-117.09501 z m -156.12668,0 c 0,-23.419 15.61267,-39.03167 39.03167,-39.03167 23.419,0 39.03167,15.61267 39.03167,39.03167 0,23.419 -15.61267,39.03167 -39.03167,39.03167 -23.419,0 -39.03167,-15.61267 -39.03167,-39.03167 z"
     p-id="6738"
     id="path3"
     style="stroke-width:1.21975" />
</svg>
