<?xml version="1.0" encoding="UTF-8" standalone="no"?>
<svg
   viewBox="64 64 896 896"
   focusable="false"
   fill="currentColor"
   width="1em"
   height="1em"
   data-icon="branches"
   aria-hidden="true"
   version="1.1"
   id="svg1"
   sodipodi:docname="branchs.svg"
   inkscape:version="1.4.3 (0d15f75, 2025-12-25)"
   xmlns:inkscape="http://www.inkscape.org/namespaces/inkscape"
   xmlns:sodipodi="http://sodipodi.sourceforge.net/DTD/sodipodi-0.dtd"
   xmlns="http://www.w3.org/2000/svg"
   xmlns:svg="http://www.w3.org/2000/svg">
  <defs
     id="defs1" />
  <sodipodi:namedview
     id="namedview1"
     pagecolor="#ffffff"
     bordercolor="#666666"
     borderopacity="1.0"
     inkscape:showpageshadow="2"
     inkscape:pageopacity="0.0"
     inkscape:pagecheckerboard="0"
     inkscape:deskcolor="#d1d1d1"
     inkscape:zoom="0.70000415"
     inkscape:cx="138.57061"
     inkscape:cy="688.56735"
     inkscape:window-width="3840"
     inkscape:window-height="2036"
     inkscape:window-x="2548"
     inkscape:window-y="-12"
     inkscape:window-maximized="1"
     inkscape:current-layer="svg1" />
  <path
     d="m 740,863.1 c -61.8,0 -112,-50.2 -112,-112 0,-50.1 33.1,-92.6 78.5,-106.9 V 548.3 L 320,421.7 V 706 c 44.2,15 76,56.9 76,106.1 0,61.8 -50.2,112 -112,112 -61.8,0 -112,-50.2 -112,-112 0,-49.2 31.8,-91 76,-106.1 V 318.1 c -44.2,-15 -76,-56.9 -76,-106.1 0,-61.8 50.2,-112 112,-112 61.8,0 112,50.2 112,112 0,49.2 -31.8,91 -76,106.1 v 27.8 l 423.5,138.7 a 50.52,50.52 0 0 1 34.9,48.2 v 113.1 c 42.9,15.8 73.6,57 73.6,105.2 0,61.8 -50.2,112 -112,112 z m -504,-51 a 48.01,48.01 0 0 0 96,0 48.01,48.01 0 0 0 -96,0 z m 96,-600 a 48.01,48.01 0 0 0 -96,0 48.01,48.01 0 0 0 96,0 z m 408,491 a 48.01,48.01 0 0 0 0,96 48.01,48.01 0 0 0 0,-96 z"
     id="path1" />
</svg>
