<?xml version="1.0" encoding="UTF-8" standalone="no"?>
<!-- Uploaded to: SVG Repo, www.svgrepo.com, Generator: SVG Repo Mixer Tools -->

<svg
   fill="#000000"
   width="800px"
   height="800px"
   viewBox="0 0 64 64"
   version="1.1"
   id="svg4"
   sodipodi:docname="imagemagick-logo.svg"
   inkscape:version="1.4.3 (0d15f75, 2025-12-25)"
   xmlns:inkscape="http://www.inkscape.org/namespaces/inkscape"
   xmlns:sodipodi="http://sodipodi.sourceforge.net/DTD/sodipodi-0.dtd"
   xmlns="http://www.w3.org/2000/svg"
   xmlns:svg="http://www.w3.org/2000/svg">
  <defs
     id="defs4" />
  <sodipodi:namedview
     id="namedview4"
     pagecolor="#ffffff"
     bordercolor="#666666"
     borderopacity="1.0"
     inkscape:showpageshadow="2"
     inkscape:pageopacity="0.0"
     inkscape:pagecheckerboard="0"
     inkscape:deskcolor="#d1d1d1"
     inkscape:zoom="1.10875"
     inkscape:cx="135.28749"
     inkscape:cy="416.68546"
     inkscape:window-width="3840"
     inkscape:window-height="2036"
     inkscape:window-x="2548"
     inkscape:window-y="-12"
     inkscape:window-maximized="1"
     inkscape:current-layer="Magic_Wand" />
  <g
     data-name="Magic Wand"
     id="Magic_Wand"
     transform="matrix(1.2554444,0,0,1.2554444,-7.922518,-8.1378478)">
    <path
       d="m 10.89,57 a 3.89,3.89 0 0 0 2.76,-1.14 l 26.7,-26.7 0.26,0.78 a 3,3 0 0 0 1.07,1.45 3,3 0 0 0 4.13,-0.66 l 3,-4.13 5.28,-0.05 a 2.86,2.86 0 0 0 1.73,-0.55 2.93,2.93 0 0 0 0.6,-4.1 l -3.09,-4.15 1.66,-5 v 0 a 3,3 0 0 0 0,-1.83 A 2.9,2.9 0 0 0 53.53,9.23 3,3 0 0 0 51.31,9 l -5,1.66 -4.18,-3.08 A 3,3 0 0 0 40.4,7 v 0 a 2.92,2.92 0 0 0 -2.93,2.91 v 5.28 l -4.14,3 a 3,3 0 0 0 0.79,5.2 L 34.9,23.65 8.14,50.35 A 3.9,3.9 0 0 0 10.89,57 Z M 32.13,32.5 A 1,1 0 0 0 31.5,31.87 L 30,31.36 32.3,29 l 2,0.67 0.67,2 -2.33,2.33 z m 2,-11.49 a 1,1 0 0 1 0,-0.73 0.9,0.9 0 0 1 0.34,-0.47 L 39,16.52 a 1,1 0 0 0 0.41,-0.81 L 39.46,9.92 A 0.9,0.9 0 0 1 39.74,9.27 0.91,0.91 0 0 1 40.38,9 0.84,0.84 0 0 1 40.93,9.19 l 4.58,3.39 a 1,1 0 0 0 0.91,0.15 l 5.52,-1.82 a 0.91,0.91 0 0 1 1.15,0.58 1,1 0 0 1 0,0.58 l -1.82,5.51 a 1,1 0 0 0 0.15,0.91 l 3.39,4.58 a 0.94,0.94 0 0 1 0.18,0.69 1,1 0 0 1 -0.37,0.61 0.9,0.9 0 0 1 -0.54,0.18 l -5.79,0.05 a 1,1 0 0 0 -0.81,0.41 l -3.29,4.55 A 1,1 0 0 1 42.86,29.77 0.9,0.9 0 0 1 42.51,29.3 L 40.7,23.93 A 1,1 0 0 0 40.07,23.3 L 34.7,21.49 A 0.93,0.93 0 0 1 34.15,21 Z M 39,25 39.68,27 36.59,30.09 36,28.59 A 1,1 0 0 0 35.37,27.97 L 33.83,27.45 37,24.36 Z M 9.56,51.77 28.39,32.94 l 2,0.67 0.67,2 -18.83,18.84 A 1.8915139,1.8915139 0 1 1 9.56,51.77 Z"
       id="path1" />
    <path
       d="M 26,16.79 C 25.55,16 24.62,16.05 23.21,16.13 a 9.44,9.44 0 0 1 -5.68,-1.52 c -1.18,-0.77 -2,-1.28 -2.75,-0.83 -0.75,0.45 -0.74,1.39 -0.66,2.79 a 9.39,9.39 0 0 1 -1.52,5.69 c -0.77,1.18 -1.28,1.95 -0.82,2.74 0.46,0.79 1.37,0.74 2.79,0.66 a 9.45,9.45 0 0 1 5.68,1.53 c 0.93,0.6 1.88,1.32 2.75,0.82 0.87,-0.5 0.74,-1.39 0.65,-2.79 a 9.43,9.43 0 0 1 1.53,-5.68 c 0.74,-1.18 1.25,-1.96 0.82,-2.75 z m -2.49,1.65 a 11.43,11.43 0 0 0 -1.85,6.9 c 0,0.11 0,0.24 0,0.39 l -0.33,-0.22 a 11.5,11.5 0 0 0 -6.26,-1.86 c -0.21,0 -0.43,0 -0.64,0 h -0.39 l 0.21,-0.33 a 11.47,11.47 0 0 0 1.85,-6.9 c 0,-0.11 0,-0.25 0,-0.39 l 0.33,0.21 a 11.47,11.47 0 0 0 6.9,1.85 h 0.39 z"
       id="path2"
       style="stroke-width:0.9999965;stroke-dasharray:none" />
    <path
       d="m 55.06,36.42 c -0.6,-0.6 -1.36,-0.35 -2.41,0 a 6.84,6.84 0 0 1 -4.29,0 c -1.06,-0.35 -1.82,-0.6 -2.42,0 -0.6,0.6 -0.34,1.35 0,2.41 a 6.84,6.84 0 0 1 0,4.29 c -0.35,1.05 -0.6,1.81 0,2.41 a 1.18,1.18 0 0 0 0.89,0.36 5.32,5.32 0 0 0 1.53,-0.37 7,7 0 0 1 4.29,0 c 1.05,0.35 1.81,0.6 2.41,0 0.6,-0.6 0.34,-1.36 0,-2.41 a 6.84,6.84 0 0 1 0,-4.29 c 0.34,-1.05 0.59,-1.82 0,-2.4 z m -2,7.15 a 8.83,8.83 0 0 0 -5.19,0 9,9 0 0 0 0,-5.19 9,9 0 0 0 5.19,0 8.83,8.83 0 0 0 0.04,5.19 z"
       id="path3" />
    <path
       d="m 36.6,44.21 a 6.93,6.93 0 0 1 -3.7,-2.14 c -0.74,-0.83 -1.27,-1.43 -2.08,-1.21 -0.81,0.22 -1,1 -1.2,2.09 a 6.93,6.93 0 0 1 -2.14,3.7 c -0.83,0.74 -1.43,1.27 -1.21,2.08 0.22,0.81 1,1 2.09,1.21 a 6.82,6.82 0 0 1 3.7,2.13 c 0.64,0.72 1.24,1.44 2.09,1.21 0.85,-0.23 1,-1 1.2,-2.09 a 6.85,6.85 0 0 1 2.13,-3.7 c 0.83,-0.74 1.43,-1.27 1.21,-2.08 -0.22,-0.81 -1,-0.98 -2.09,-1.2 z M 33.43,50.6 A 8.88,8.88 0 0 0 29,48 9,9 0 0 0 31.59,43.52 8.85,8.85 0 0 0 36,46.12 8.92,8.92 0 0 0 33.43,50.6 Z"
       id="path4" />
  </g>
</svg>
