<?xml version="1.0" encoding="UTF-8" standalone="no"?>
<svg
   t="1777952919365"
   class="icon"
   viewBox="0 0 1024 1024"
   version="1.1"
   p-id="3477"
   width="200"
   height="200"
   id="svg4"
   sodipodi:docname="sidebar-hide.svg"
   inkscape:version="1.4.3 (0d15f75, 2025-12-25)"
   xmlns:inkscape="http://www.inkscape.org/namespaces/inkscape"
   xmlns:sodipodi="http://sodipodi.sourceforge.net/DTD/sodipodi-0.dtd"
   xmlns="http://www.w3.org/2000/svg"
   xmlns:svg="http://www.w3.org/2000/svg">
  <defs
     id="defs4" />
  <sodipodi:namedview
     id="namedview4"
     pagecolor="#ffffff"
     bordercolor="#666666"
     borderopacity="1.0"
     inkscape:showpageshadow="2"
     inkscape:pageopacity="0.0"
     inkscape:pagecheckerboard="0"
     inkscape:deskcolor="#d1d1d1"
     inkscape:zoom="6.2720372"
     inkscape:cx="115.43299"
     inkscape:cy="127.07195"
     inkscape:window-width="3840"
     inkscape:window-height="2036"
     inkscape:window-x="2548"
     inkscape:window-y="-12"
     inkscape:window-maximized="1"
     inkscape:current-layer="svg4" />
  <path
     d="M853.333333 1024 170.666667 1024c-93.866667 0-170.666667-76.8-170.666667-170.666667L0 170.666667c0-93.866667 76.8-170.666667 170.666667-170.666667l682.666667 0c93.866667 0 170.666667 76.8 170.666667 170.666667l0 682.666667C1024 947.2 947.2 1024 853.333333 1024zM170.666667 85.333333C123.733333 85.333333 85.333333 123.733333 85.333333 170.666667l0 682.666667c0 46.933333 38.4 85.333333 85.333333 85.333333l682.666667 0c46.933333 0 85.333333-38.4 85.333333-85.333333L938.666667 170.666667c0-46.933333-38.4-85.333333-85.333333-85.333333L170.666667 85.333333z"
     p-id="3478"
     id="path1" />
  <path
     d="M341.333333 1024c-25.6 0-42.666667-17.066667-42.666667-42.666667L298.666667 42.666667c0-25.6 17.066667-42.666667 42.666667-42.666667s42.666667 17.066667 42.666667 42.666667l0 938.666667C384 1006.933333 366.933333 1024 341.333333 1024z"
     p-id="3479"
     id="path2" />
  <path
     d="m 597.33333,554.66667 c 12.8,0 21.33334,-4.26667 29.86667,-12.8 l 128,-128 c 17.06667,-17.06667 17.06667,-42.66667 0,-59.73334 -17.06667,-17.06666 -42.66667,-17.06666 -59.73333,0 l -128,128 C 550.4,499.2 550.4,524.8 567.46667,541.86667 c 8.53333,8.53333 17.06666,12.8 29.86666,12.8 z"
     p-id="3480"
     id="path3" />
  <path
     d="m 725.33333,682.66667 c 12.8,0 21.33334,-4.26667 29.86667,-12.8 17.06667,-17.06667 17.06667,-42.66667 0,-59.73334 l -128,-128 c -17.06667,-17.06666 -42.66667,-17.06666 -59.73333,0 C 550.4,499.2 550.4,524.8 567.46667,541.86667 l 128,128 c 8.53333,8.53333 17.06666,12.8 29.86666,12.8 z"
     p-id="3481"
     id="path4" />
</svg>
