<?xml version="1.0" encoding="UTF-8" standalone="no"?>
<svg
   viewBox="64 64 896 896"
   focusable="false"
   fill="currentColor"
   width="1em"
   height="1em"
   data-icon="moon"
   aria-hidden="true"
   version="1.1"
   id="svg1"
   sodipodi:docname="sun-moon.svg"
   xml:space="preserve"
   inkscape:version="1.4.3 (0d15f75, 2025-12-25)"
   xmlns:inkscape="http://www.inkscape.org/namespaces/inkscape"
   xmlns:sodipodi="http://sodipodi.sourceforge.net/DTD/sodipodi-0.dtd"
   xmlns="http://www.w3.org/2000/svg"
   xmlns:svg="http://www.w3.org/2000/svg"><defs
     id="defs1" /><sodipodi:namedview
     id="namedview1"
     pagecolor="#ffffff"
     bordercolor="#666666"
     borderopacity="1.0"
     inkscape:showpageshadow="2"
     inkscape:pageopacity="0.0"
     inkscape:pagecheckerboard="0"
     inkscape:deskcolor="#d1d1d1"
     showguides="false"
     inkscape:zoom="1.4000083"
     inkscape:cx="496.42563"
     inkscape:cy="424.99748"
     inkscape:window-width="3840"
     inkscape:window-height="2036"
     inkscape:window-x="2548"
     inkscape:window-y="-12"
     inkscape:window-maximized="1"
     inkscape:current-layer="svg1" /><path
     d="m 382.93179,284.799 c 25.52277,-1.49889 38.28833,30.34421 18.80274,46.90696 a 202.64168,202.64168 0 0 0 -71.68029,154.89368 c 0,112.21695 90.96602,203.18296 203.18297,203.18296 60.43859,0 116.49711,-26.5054 154.89369,-71.68028 16.54609,-19.46893 48.35588,-6.74502 46.91527,18.76111 -9.95096,176.0114 -155.88462,314.39231 -332.96189,314.39231 -184.18868,0 -333.503163,-149.31449 -333.503163,-333.50315 0,-176.02807 136.807073,-321.44544 311.602693,-332.79537 l 0.16655,-0.008 z m -67.57499,66.40918 -3.42246,1.13251 c -110.86794,37.61382 -190.05935,142.66107 -190.05935,265.4119 0,154.75212 125.45715,280.20926 280.20929,280.20926 123.47527,0 228.94721,-80.10737 266.01145,-191.86632 l 0.52461,-1.60715 -0.0917,0.0584 a 255.69409,255.69409 0 0 1 -133.0099,38.52146 l -2.28162,0.008 c -141.64517,0 -256.47685,-114.83168 -256.47685,-256.47684 0,-48.79722 13.72317,-95.37941 38.52981,-135.29154 z"
     id="path1"
     style="stroke-width:0.832717" /><g
     style="fill:currentColor"
     id="g1"
     transform="matrix(0.96517643,0,0,0.96517643,299.57694,92.036601)"><path
       id="path1-9"
       d="m 210.5731,-18.856652 c -8.83656,0 -16,7.163444 -16,16 V 123.14335 c 15.84,-1.64 27.85,-2.46094 36,-2.46094 8.16,0 20.15,0.82094 36,2.46094 V -2.856652 c 0,-8.836556 -7.16344,-16 -16,-16 z m 310.75,111.9668 c -4.09311,0 -8.18678,1.56187 -11.31055,4.68359 l -89.09961,89.099612 c 12.36,10.04 21.42922,17.95094 27.19922,23.71094 5.76,5.77 13.67094,14.82922 23.71094,27.19922 l 89.09961,-89.08985 c 6.25011,-6.24868 6.25011,-16.38218 0,-22.63086 L 532.63365,97.793738 c -3.12377,-3.12172 -7.21744,-4.68359 -11.31055,-4.68359 z m -290.75,102.033202 c -13.34026,0 -41.70054,11.19121 -35.76131,43.88472 4.53014,24.93695 28.28466,28.11528 35.76131,28.11528 89.47,0 162,72.53 162,162 0,13.80345 9.87545,39.78989 31.70528,39.99609 33.89852,0.32019 40.29472,-26.36011 40.29472,-39.99609 0,-129.23 -104.76,-234 -234,-234 z m 306,198 c 1.64,15.84 2.46094,27.85 2.46094,36 0,8.16 -0.82094,20.15 -2.46094,36 h 126 c 8.83656,0 16,-7.16344 16,-16 v -40 c 0,-8.83656 -7.16344,-16 -16,-16 z"
       sodipodi:nodetypes="sscscsssscccccccsssssssscscssssc" /></g></svg>
