<?xml version="1.0" encoding="UTF-8" standalone="no"?>
<svg
   t="1777038624735"
   class="icon"
   viewBox="0 0 1024 1024"
   version="1.1"
   p-id="11007"
   width="200"
   height="200"
   id="svg1"
   sodipodi:docname="task.svg"
   inkscape:version="1.4.3 (0d15f75, 2025-12-25)"
   xmlns:inkscape="http://www.inkscape.org/namespaces/inkscape"
   xmlns:sodipodi="http://sodipodi.sourceforge.net/DTD/sodipodi-0.dtd"
   xmlns="http://www.w3.org/2000/svg"
   xmlns:svg="http://www.w3.org/2000/svg">
  <defs
     id="defs1" />
  <sodipodi:namedview
     id="namedview1"
     pagecolor="#ffffff"
     bordercolor="#666666"
     borderopacity="1.0"
     inkscape:showpageshadow="2"
     inkscape:pageopacity="0.0"
     inkscape:pagecheckerboard="0"
     inkscape:deskcolor="#d1d1d1"
     inkscape:zoom="4.435"
     inkscape:cx="30.214205"
     inkscape:cy="115.6708"
     inkscape:window-width="3840"
     inkscape:window-height="2036"
     inkscape:window-x="2548"
     inkscape:window-y="-12"
     inkscape:window-maximized="1"
     inkscape:current-layer="svg1" />
  <path
     id="path3"
     d="M 827.93317,18.443281 A 164.54683,164.54683 0 0 0 663.39109,182.99573 164.54683,164.54683 0 0 0 827.93317,347.53781 164.54683,164.54683 0 0 0 992.48562,182.99573 164.54683,164.54683 0 0 0 827.93317,18.443281 Z m 1.55454,83.944759 a 82.606227,82.606227 0 0 1 82.60785,82.60785 82.606227,82.606227 0 0 1 -82.60785,82.60786 82.606227,82.606227 0 0 1 -82.60786,-82.60786 82.606227,82.606227 0 0 1 82.60786,-82.60785 z" />
  <g
     id="g6">
    <path
       id="rect4"
       style="baseline-shift:baseline;display:inline;overflow:visible;opacity:1;vector-effect:none;stroke-linecap:round;enable-background:accumulate;stop-color:#000000;stop-opacity:1"
       d="m 252.98461,135.25899 c -119.25259,0 -217.369999,96.19586 -217.369999,214.76 0,118.56413 98.117409,214.76 217.369999,214.76 h 463.19 v -92.16 h -463.19 c -70.54589,0 -125.21,-54.26596 -125.21,-122.6 0,-68.33405 54.66411,-122.6 125.21,-122.6 h 463.19 v -92.16 z" />
    <path
       id="rect4-1"
       style="baseline-shift:baseline;display:inline;overflow:visible;vector-effect:none;stroke-linecap:round;enable-background:accumulate;stop-color:#000000"
       d="m 778.63514,472.69286 c 119.2526,0 217.37,96.19586 217.37,214.76 0,118.56413 -98.1174,214.76 -217.37,214.76 h -463.19 v -92.16 h 463.19 c 70.5459,0 125.21,-54.26596 125.21,-122.6 0,-68.33405 -54.6641,-122.6 -125.21,-122.6 h -463.19 v -92.16 z" />
  </g>
  <path
     id="path3-2"
     d="M 193.05862,683.97221 A 164.54683,164.54683 0 0 0 28.51652,848.52466 164.54683,164.54683 0 0 0 193.05862,1013.0667 164.54683,164.54683 0 0 0 357.61102,848.52466 164.54683,164.54683 0 0 0 193.05862,683.97221 Z m 1.5545,83.94476 a 82.606227,82.606227 0 0 1 82.6079,82.60785 82.606227,82.606227 0 0 1 -82.6079,82.60786 82.606227,82.606227 0 0 1 -82.6078,-82.60786 82.606227,82.606227 0 0 1 82.6078,-82.60785 z" />
</svg>
