<?xml version="1.0" encoding="UTF-8" standalone="no"?>
<svg
   t="1777038624735"
   class="icon"
   viewBox="0 0 1024 1024"
   version="1.1"
   p-id="11007"
   width="200"
   height="200"
   id="svg1"
   sodipodi:docname="task.svg"
   inkscape:version="1.4.3 (0d15f75, 2025-12-25)"
   xmlns:inkscape="http://www.inkscape.org/namespaces/inkscape"
   xmlns:sodipodi="http://sodipodi.sourceforge.net/DTD/sodipodi-0.dtd"
   xmlns="http://www.w3.org/2000/svg"
   xmlns:svg="http://www.w3.org/2000/svg">
  <defs
     id="defs1" />
  <sodipodi:namedview
     id="namedview1"
     pagecolor="#ffffff"
     bordercolor="#666666"
     borderopacity="1.0"
     inkscape:showpageshadow="2"
     inkscape:pageopacity="0.0"
     inkscape:pagecheckerboard="0"
     inkscape:deskcolor="#d1d1d1"
     inkscape:zoom="4.435"
     inkscape:cx="30.214205"
     inkscape:cy="115.6708"
     inkscape:window-width="3840"
     inkscape:window-height="2036"
     inkscape:window-x="2548"
     inkscape:window-y="-12"
     inkscape:window-maximized="1"
     inkscape:current-layer="svg1" />
  <path
     id="path3"
     d="M 827.93317,18.443281 A 164.54683,164.54683 0 0 0 663.39109,182.99573 164.54683,164.54683 0 0 0 827.93317,347.53781 164.54683,164.54683 0 0 0 992.48562,182.99573 164.54683,164.54683 0 0 0 827.93317,18.443281 Z m 1.55454,83.944759 a 82.606227,82.606227 0 0 1 82.60785,82.60785 82.606227,82.606227 0 0 1 -82.60785,82.60786 82.606227,82.606227 0 0 1 -82.60786,-82.60786 82.606227,82.606227 0 0 1 82.60786,-82.60785 z" />
  <path
     id="rect4"
     style="baseline-shift:baseline;display:inline;overflow:visible;vector-effect:none;stroke-linecap:round;enable-background:accumulate;stop-color:#000000"
     d="M 252.98 135.26 C 133.72741 135.26 35.61 231.45586 35.61 350.02 C 35.61 468.58413 133.72741 564.78 252.98 564.78 L 315.45 564.78 L 315.45 564.85 L 778.64 564.85 C 849.1859 564.85 903.85 619.11595 903.85 687.45 C 903.85 755.78404 849.1859 810.05 778.64 810.05 L 315.45 810.05 L 315.45 902.21 L 778.64 902.21 C 897.8926 902.21 996.01 806.01413 996.01 687.45 C 996.01 568.88586 897.8926 472.69 778.64 472.69 L 716.17 472.69 L 716.17 472.62 L 252.98 472.62 C 182.43411 472.62 127.77 418.35404 127.77 350.02 C 127.77 281.68595 182.43411 227.42 252.98 227.42 L 716.17 227.42 L 716.17 135.26 L 252.98 135.26 z " />
  <path
     id="path3-2"
     d="M 193.05862,683.97221 A 164.54683,164.54683 0 0 0 28.51652,848.52466 164.54683,164.54683 0 0 0 193.05862,1013.0667 164.54683,164.54683 0 0 0 357.61102,848.52466 164.54683,164.54683 0 0 0 193.05862,683.97221 Z m 1.5545,83.94476 a 82.606227,82.606227 0 0 1 82.6079,82.60785 82.606227,82.606227 0 0 1 -82.6079,82.60786 82.606227,82.606227 0 0 1 -82.6078,-82.60786 82.606227,82.606227 0 0 1 82.6078,-82.60785 z" />
</svg>
