<?xml version="1.0" encoding="utf-8"?>
<!DOCTYPE svg PUBLIC "-//W3C//DTD SVG 1.0//EN" "http://www.w3.org/TR/2001/REC-SVG-20010904/DTD/svg10.dtd">
<svg version="1.0" xmlns="http://www.w3.org/2000/svg" width="784px" height="1340px" viewBox="0 0 784 1340" preserveAspectRatio="xMidYMid meet">
 <g fill="#a185d7">
  <path d="M360.4 1336.6 c-0.9 -1.8 -2.9 -4 -4.4 -4.9 -8.1 -4.8 -18.7 -17.2 -24.4 -28.4 -3.6 -7.3 -5.6 -19.6 -4.9 -31.8 l0.5 -10 -8.2 -21.5 c-17.9 -47.1 -29.7 -81.3 -36.6 -106.5 -2 -7.1 -4 -13.4 -4.5 -13.9 -0.5 -0.5 -1.3 0.2 -1.8 1.8 -2.2 5.5 -4.9 4.5 -20.9 -7.7 -5.2 -3.9 -13 -10.9 -17.4 -15.6 l-7.9 -8.4 -3.3 3.2 c-1.7 1.7 -3.9 3.1 -4.8 3.1 -2 0 -10.5 -12.4 -15.5 -22.8 -2.7 -5.5 -3.8 -9 -3.8 -12.3 l0 -4.7 -9.2 -5.1 c-5.4 -3 -9.3 -5.8 -9.3 -6.7 0 -2.2 20.1 -41.1 30.7 -59.4 18.5 -32 21.9 -37.8 30 -50.9 l8.4 -13.4 -4 0.6 c-8.5 1.1 -9 1.7 -16.7 20.7 -3.8 9.6 -8.8 20.9 -11 25 -8.2 15.8 -18 20.8 -26.7 14 -5.8 -4.6 -13.7 -25.5 -13.6 -36 0 -6.2 12.2 -50 21.9 -78.5 4.7 -13.9 5 -15.4 4.4 -21.5 -0.7 -7.2 -0.4 -7.9 12.1 -35.9 8.9 -19.9 14.5 -42.6 16.4 -66.1 1 -13.2 0.8 -19.7 -2.1 -59.5 -3.3 -46.3 -2.4 -73.7 3.1 -97 1.1 -4.4 1.8 -8.1 1.6 -8.3 -0.1 -0.2 -2.9 0.8 -6.1 2.1 -3.3 1.4 -9.9 3.9 -14.9 5.7 -4.9 1.7 -13 4.7 -18 6.5 -44.9 16.7 -84.1 27.3 -107.8 29.1 -18.3 1.4 -35.2 -4.9 -38.9 -14.6 -1.9 -5.1 -8.7 -40.9 -9.4 -49.6 -0.8 -11.6 0.1 -17.4 8.8 -52.1 6.7 -27.2 7 -28.9 5.9 -33.4 -1.5 -5.6 -0.2 -11.8 3.2 -15.2 2 -2 2.1 -3.1 2 -12.6 -0.2 -9.1 0.1 -11.1 2.2 -15.5 1.4 -3.1 2.6 -8.1 3 -12.6 1.6 -17.6 3.1 -20.7 12.5 -26 l5.9 -3.3 -0.6 -8.7 c-0.7 -10.7 -0.1 -13.4 3.6 -15.6 l2.8 -1.7 -6.1 -12.6 c-11.4 -23.5 -12.1 -24.6 -35.2 -50.1 -13.8 -15.3 -18.4 -21.4 -18.4 -24.2 0 -2.5 2.8 -4.8 5.8 -4.8 5.3 0 11.6 4.5 27.4 19.6 8.9 8.5 16.6 15.4 17 15.4 2.5 0 -1.3 -10 -13.7 -35.5 -5.3 -11 -11 -23.2 -12.6 -27.2 -4.3 -10.7 -3.7 -18.3 1.6 -18.3 2.4 0 2.5 -0.3 1.9 -3.9 -0.5 -3.3 -0.3 -4.1 1.7 -5.5 3.4 -2.3 6 -2 11.2 1.5 8.3 5.5 15.8 15.4 32.8 43.8 5.7 9.5 11.4 18 12.6 18.8 3.6 2.4 4.6 0.8 3.8 -6.1 -0.7 -6.7 -5.5 -30.8 -8.5 -42.6 -3.1 -12.3 -3.5 -17.6 -1.6 -20.5 2.2 -3.3 4.8 -3.2 9.1 0.6 6.2 5.5 10.5 16.4 19.1 49.4 5.7 21.9 15.2 44.5 18.8 44.5 1.9 0 4.3 -5 6.1 -12.5 2.7 -11.7 10.3 -21.8 18.5 -24.7 l3 -1 0 -11.9 c0 -25.3 7.7 -56.1 21 -84.5 2.9 -6 6.5 -14.7 8.2 -19.4 12.7 -36.2 32.9 -66.7 57.9 -87.6 13 -10.7 29.5 -21.3 43.6 -27.7 11.9 -5.4 31.7 -10.6 45.3 -11.9 10.8 -1 12 -0.9 19.5 1.1 4.4 1.3 9.5 2.2 11.3 2.2 24.5 -0.7 29.9 -0.5 37.7 1.7 12.3 3.5 24.7 8.8 37.5 16.3 12.8 7.4 32.9 25 43.2 37.8 8.7 10.8 15 21.6 19.8 34.1 0.8 1.9 2.8 5.2 4.6 7.3 5.5 6.6 10.3 16.9 11 23.6 0.7 6 0.8 6.1 5.3 8.7 15.6 8.9 27.8 18.8 31.8 25.8 1.7 2.9 1.6 7.5 -0.3 15.2 -2.2 8.7 -5 12.8 -9.4 13.4 l-3.4 0.5 10 10.5 c23.9 25.1 31.5 38.3 31.6 54.2 0.1 5.6 -0.4 7.5 -3 12.1 l-3.1 5.5 3 7.7 c2.9 7.3 3 8.6 2.7 18.4 -0.4 13.1 -2.1 16.9 -12 27.8 -8.7 9.7 -10.8 13.6 -10.8 20.8 0 10.1 5.2 16.8 13.1 16.8 5.1 0 9.1 -2.9 10.4 -7.6 1.4 -5 2.5 -5.7 2.5 -1.5 0 13.4 -20.9 19.7 -33.7 10.1 l-3.3 -2.4 0 3.8 c0 2.1 -0.5 5.4 -1 7.4 -1.3 4.7 -7.5 11.8 -11.8 13.6 -3.3 1.4 -3.4 1.6 -1.8 3.1 1.2 1.2 3.4 1.7 8.1 1.7 6.1 0 6.6 -0.2 10.5 -4 4.3 -4.2 4.9 -4.1 2.5 0.5 -2 3.9 -8.9 7.8 -16.5 9.3 l-6.1 1.3 2.9 4 c1.6 2.2 5.2 5.7 8 7.8 6.6 5 10.3 11.8 10.9 20 l0.5 6.2 8.2 4.6 c4.4 2.5 9.5 5.3 11.1 6.1 4.7 2.4 9.5 7.4 11.6 12.5 8.3 19.1 15.9 72.7 15.9 111.2 0 12.2 0.3 14.6 2.6 21.6 2.4 7.2 2.7 10 3.5 30.4 0.4 12.4 1 25.2 1.3 28.5 0.3 3.3 1.1 11.6 1.6 18.5 0.6 6.9 2 20.6 3.1 30.5 1.1 9.9 2.6 24.1 3.4 31.5 1.1 11.7 1.7 14.4 4.6 20.5 3.4 7 3.4 7.1 3.5 22.5 0.1 14.4 0.4 17 4.7 37.1 4.6 21.5 8 40.7 9.3 52.7 0.4 3.4 0.8 6.2 1 6.2 0.2 0 4.8 -1.4 10.1 -3 5.4 -1.7 11.9 -3.7 14.5 -4.5 11.2 -3.5 20.3 -0.1 23.8 9 1.8 4.6 15.2 54.8 28.9 108.5 2.2 8.5 5.1 20 6.6 25.5 9.1 34.5 9.8 37.7 8.6 43.1 -1.9 8.5 -4.6 10.2 -30.6 19.6 -6 2.2 -16.1 5.8 -22.4 7.9 -6.3 2.1 -15.7 5.5 -20.8 7.5 -8.5 3.3 -9.3 3.8 -9.3 6.3 0 4.1 -5.1 11.9 -13.6 20.8 -6.7 6.9 -8.8 8.4 -13.8 10.1 -3.8 1.3 -6.7 3 -7.9 4.6 -2.5 3.4 -6.7 5.6 -11 5.6 -2.5 0 -4 0.8 -6.4 3.4 -4.4 5 -6.9 5.3 -14.3 1.7 -5.9 -2.9 -6.3 -3 -9.1 -1.5 -1.7 0.8 -4.5 1.4 -6.2 1.2 l-3.2 -0.3 -0.9 -8 c-0.5 -4.4 -1 -8.1 -1.1 -8.3 -0.1 -0.1 -13 4.3 -28.6 9.9 -35.1 12.5 -42 13.5 -48.5 7 l-2.9 -2.9 -3.4 6.2 c-7.8 14.2 -21.8 38.8 -27.7 48.8 -6.6 11.2 -23.4 41.5 -23.4 42.2 0 0.3 2.1 0.8 4.8 1.1 6.6 0.9 23.9 5.7 35.4 9.8 16.1 5.7 27 12.6 61.8 39.1 12.4 9.4 25.7 19.2 29.5 21.8 7.8 5.1 21.4 12.1 29 14.9 l5 1.9 -6.5 -0.3 c-11.1 -0.5 -23 -7.8 -71.2 -44.3 -9.5 -7.2 -20.3 -14.9 -24 -17.2 -7.3 -4.6 -20.9 -11.6 -24.6 -12.7 -2.2 -0.6 -2.2 -0.5 0.7 4.1 1.7 2.6 4.3 8.3 5.8 12.8 2.4 7 2.8 9.7 2.8 19.6 0 8 -0.6 13.5 -1.8 18 -2.3 8.4 -7.9 19.4 -10 19.8 -1.3 0.3 -0.9 -1.4 2.3 -7.8 5.5 -11.5 7.4 -20.9 6.7 -32.9 -0.9 -14.8 -7.4 -31.2 -14 -35.6 -3.3 -2.1 -24.8 -7.5 -30.2 -7.5 l-4.2 0 -3.7 9.3 c-2 5 -4.3 12.3 -5 16 -2 9.5 -3 9.7 -2.3 0.6 1.3 -15.8 6.5 -26.7 42.3 -89.4 15.4 -26.9 23.4 -41.9 23.4 -43.9 0 -2.3 -3.2 -3.3 -12.7 -3.8 l-8.3 -0.5 0 3.4 c0 1.9 -0.6 3.6 -1.4 3.9 -2 0.8 -28.2 -4 -50.8 -9.3 -21.2 -4.9 -22.8 -4.9 -22.8 0.4 0 1.3 -0.7 2.6 -1.6 3 -1.8 0.7 -1.8 0.7 -29.9 -9.1 -10.4 -3.6 -19.8 -6.6 -20.7 -6.6 -1.2 0 -2 1.2 -2.6 3.8 -15.2 62.8 -27.3 121.8 -28.8 140.7 -2.2 28.5 18.4 55.2 48.8 63.4 l7.3 2 -7.1 0 c-4.2 0.1 -8.6 -0.5 -10.7 -1.4 -2 -0.8 -3.9 -1.5 -4.1 -1.5 -0.3 0 -0.3 0.7 0 1.5 1.2 3.1 -2.7 1.4 -4.2 -1.9z m-29.9 -88.3 c1.4 -11.6 11.3 -59 19 -91.1 l3.7 -15.2 -4.3 -4 c-2.4 -2.1 -4.7 -3.9 -5.1 -4 -0.5 0 -0.8 1.5 -0.8 3.4 0 1.9 -0.3 3.7 -0.8 3.9 -1.6 1 -37.5 -12.5 -51.1 -19.2 -4.6 -2.3 -8.5 -4 -8.7 -3.9 -0.1 0.2 2.4 9.3 5.6 20.3 6.6 23.1 15.9 50.5 29 86 5.1 13.8 9.7 26.2 10.2 27.7 1.4 4 2.5 2.7 3.3 -3.9z m192.3 -93 c-3.2 -3.5 -5.1 -7.3 -6.8 -13.8 -1.6 -6.2 -1.6 -6.1 -3.5 -4.1 -1.5 1.5 -1.5 2.1 0 7.3 1.8 6.3 3.4 8.6 8 11.4 4.3 2.7 5.3 2.3 2.3 -0.8z m27.4 -4.4 c9.5 -3.4 22.9 -8.1 29.8 -10.5 l12.5 -4.3 -0.4 -5.3 c-0.1 -2.9 -0.5 -5.5 -0.7 -5.7 -0.4 -0.5 -16 4.6 -33.7 11 -9.9 3.5 -12 4 -12.8 2.8 -1.5 -2.3 -4.2 -12 -15.5 -55.4 -5.8 -22.5 -13.1 -50.2 -16 -61.5 -3 -11.3 -7.5 -28.6 -10 -38.5 -2.4 -9.9 -4.7 -18.7 -4.9 -19.6 -1.2 -3.9 0.6 -4.6 65.6 -24.9 3.2 -1 6.1 -2 6.7 -2.4 0.9 -0.5 -0.1 -9.3 -1.3 -10.4 -0.4 -0.4 -29.2 8.3 -66 19.9 -4.9 1.5 -12.9 4 -17.6 5.4 l-8.6 2.6 -1.6 4.7 c-1 2.6 -1.7 5.8 -1.7 7.3 0 1.4 3.3 15.8 7.4 32 14.6 58 26.7 105.5 28.1 109.9 0.7 2.5 3.2 11.7 5.5 20.5 2.3 8.8 5.1 17.9 6.2 20.3 2.4 4.9 6.1 8.2 9.3 8.2 1.3 0 10.1 -2.8 19.7 -6.1z m72.3 4.5 c0.8 -0.4 4 -4.8 7 -9.9 5.7 -9.6 14.6 -20.6 15.3 -18.7 0.2 0.6 -1.4 3.5 -3.6 6.4 -2.2 2.9 -5.2 7.4 -6.7 10.1 l-2.7 4.7 2.9 0 c4.1 0 6 -1.6 16.9 -14.7 5.4 -6.4 10 -11.1 10.2 -10.5 0.4 1.2 -4.5 8.9 -8.1 12.9 -2.7 3.1 -1.8 3.6 2.1 1.3 1.8 -1.1 4.2 -4.1 5.8 -7.1 1.4 -2.9 4.1 -7.4 5.9 -10.1 1.8 -2.6 3.5 -5.3 3.8 -6 0.2 -0.7 0.8 -1 1.2 -0.6 0.4 0.3 -0.5 2.9 -1.8 5.7 -1.6 3.1 -2.1 4.8 -1.2 4.5 0.7 -0.3 2.6 -3.1 4.2 -6.2 2.7 -5.3 2.8 -6.1 2 -11.3 l-1 -5.6 -6.5 2.4 c-16.9 6.2 -28.6 7.9 -42.2 6.3 -5 -0.7 -9.4 -1 -9.6 -0.7 -0.2 0.2 0.2 3.3 1.1 6.8 0.8 3.5 1.5 8.2 1.5 10.5 0 4.7 -3.7 16.4 -5.2 16.4 -1.1 0 -0.6 -4.8 0.7 -8.2 0.4 -1 0.3 -1.8 -0.2 -1.8 -0.9 0 -4.7 14.5 -4.8 18 0 1.6 7 6 9.7 6 0.9 0 2.4 -0.3 3.3 -0.6z m-21.7 -6 c1.5 -4.4 0.9 -8.2 -1.6 -10 -0.9 -0.7 -1.4 -1.6 -0.9 -2 0.4 -0.4 1.9 0.3 3.3 1.7 2.3 2.1 2.5 3 2.2 7.6 -0.6 6.4 0.4 6 3.2 -1.5 1.5 -3.8 2.3 -8.9 2.6 -15.2 0.3 -5.2 1.2 -12.3 2.1 -15.8 0.8 -3.5 1.3 -6.5 1.1 -6.7 -0.2 -0.3 -3.6 -1.1 -7.4 -1.9 -3.8 -0.7 -7.7 -1.7 -8.6 -2.1 -1.7 -0.7 -1.8 0.2 -1.8 10.1 0 15.4 2.2 40.5 3.5 40.1 0.5 -0.2 1.6 -2.1 2.3 -4.3z m-114.8 -3.9 c0 -1.4 -0.7 -12 -1.5 -23.7 -0.8 -11.7 -2.1 -32.1 -3 -45.3 -2.1 -32.7 -1.7 -30.6 -7.3 -33.2 -14 -6.5 -26.4 -23.1 -35.4 -47.1 l-4.3 -11.7 -0.7 9.5 c-0.4 5.2 -1.2 20.5 -1.7 34 -2.2 49.6 -5.2 99.6 -6.1 101.5 -1.1 2.2 -0.7 -11 1.6 -56.4 0.8 -15.7 1.3 -30.8 1.3 -33.5 -0.2 -4.8 -0.2 -4.6 -1.4 2.9 -1.6 10.7 -6.9 48.3 -10.3 73.1 l-2.8 20.2 4.6 -0.1 c2.5 0 9.5 1.2 15.5 2.7 12.9 3.2 44.8 9.4 48.8 9.5 2.2 0.1 2.7 -0.3 2.7 -2.4z m-74.1 -12.2 c1.4 -10.6 8.2 -59.5 13.6 -97.8 4.4 -30.9 6.9 -52.5 6.2 -53.2 -0.4 -0.3 -6.6 -1 -13.9 -1.5 -7.3 -0.5 -16 -1.3 -19.3 -1.8 -11.8 -1.9 -10.9 -2.5 -13.9 10.3 -3 12.6 -11.8 40.9 -17.6 56.7 -5.5 14.7 -26 73.9 -26 74.9 0 0.4 3.5 1.5 7.8 2.4 12.6 2.7 24.7 6.2 42.6 12.7 9.3 3.3 17.2 6.2 17.4 6.5 1.4 1.4 2 -0.3 3.1 -9.2z m96.1 7.8 c0 -0.5 -0.5 -2.2 -1 -3.7 -0.8 -2.1 -15.5 -57.7 -23.1 -87.8 -0.6 -2.1 -1.2 -3.6 -1.4 -3.5 -0.1 0.2 0.1 5.8 0.6 12.4 0.5 6.6 1.8 25.1 2.8 41 1.1 16 2.3 31.8 2.6 35.2 l0.6 6.2 3.7 0.4 c7.6 0.8 15.2 0.7 15.2 -0.2z m-167 -8.7 c0 -1.7 -0.9 -4.3 -2 -5.7 -1.1 -1.4 -2 -3.1 -2 -3.9 0 -0.8 1.8 -6.7 4 -13.2 3.4 -10.2 4.3 -14.7 6 -31 3.3 -30.7 9.8 -82.1 12 -94.5 1.1 -6.3 1.8 -11.6 1.6 -11.8 -0.1 -0.2 -7.4 -2.3 -16 -4.8 -8.6 -2.4 -17.7 -5.3 -20.1 -6.4 l-4.5 -2 -1 4.2 c-0.6 2.3 -2.2 8 -3.5 12.7 -4.2 14.9 -10.1 40.8 -20.6 89.5 -3.2 15.4 -6.8 32.1 -7.9 37 -1.1 5 -2.3 10 -2.5 11.1 -0.4 1.9 1.1 2.8 13.8 8.3 21.6 9.3 41.1 16.1 41.9 14.8 0.4 -0.7 0.8 -2.6 0.8 -4.3z m12 2.9 c0 -1.4 0.2 -1.5 0.9 -0.5 0.6 1 1 0.4 1.5 -1.9 0.3 -1.8 0.3 -3.6 -0.1 -4 -0.5 -0.4 -3.6 -1.4 -7 -2.2 -7 -1.6 -7 -1.9 -0.3 6.1 3.8 4.6 5 5.1 5 2.5z m216.6 -6.2 l21.9 -7.9 0.3 -8.7 c0.3 -8.4 0.2 -8.7 -2.8 -12.1 -2.5 -2.9 -3 -4.2 -2.5 -6.7 1.9 -11.7 2.6 -17.6 3.2 -28.3 l0.6 -12.1 -3.2 -1.1 c-1.7 -0.6 -3.1 -1.3 -3.1 -1.5 0 -0.2 -0.4 -2.8 -1 -5.8 -0.5 -3 -2.3 -21.8 -4 -41.9 -2.6 -32.1 -5 -54.8 -6.5 -61.6 -0.5 -2.1 -1.4 -1.9 -26.7 6.1 -14.5 4.6 -30.3 9.5 -35.1 10.9 -4.8 1.5 -9 3.3 -9.3 4 -0.3 0.7 0.4 4.6 1.5 8.7 1.1 4.1 8.3 31.9 16.1 61.9 7.7 30 16.2 62.2 18.7 71.5 2.5 9.4 5 18.8 5.5 21 1.9 8.3 2.9 11.5 3.7 11.5 0.5 0 10.7 -3.5 22.7 -7.9z m-57.3 0.3 c-0.4 -1.1 -4.3 -2.8 -4.3 -1.9 0 1.6 1.4 3.1 2.9 3.1 1 0 1.7 -0.6 1.4 -1.2z m103.7 -3.8 c0 -5.4 -1.1 -10 -2.1 -8.4 -1 1.6 -1.2 10.2 -0.2 11.1 1.4 1.5 2.3 0.5 2.3 -2.7z m-106.4 -1.4 c0.6 -0.4 0.7 -1.7 0.3 -3.2 -0.4 -1.6 -0.7 -1.9 -0.8 -0.7 -0.1 0.9 -0.5 1.7 -1.1 1.7 -0.5 0 -1 0.7 -1 1.5 0 1.6 0.9 1.9 2.6 0.7z m-233.1 -19.7 c2 -7.7 6.1 -22.3 9 -32.5 4.8 -16.6 9.2 -32.6 26.5 -94.2 4.8 -17.4 5.3 -20.8 3 -20.8 -1.6 0 -21.9 -9.8 -25.1 -12.1 -1.7 -1.2 -3.4 -1.8 -3.9 -1.3 -1 1.1 -13 31 -19.8 49.4 -2.7 7.4 -9.6 27.5 -15.2 44.5 -5.6 17.1 -11.8 35.6 -13.7 41.2 l-3.5 10.2 3.4 4.2 c3.7 4.6 19.9 18.3 28.6 24.2 4.1 2.8 5.7 3.5 6.2 2.5 0.4 -0.7 2.4 -7.6 4.5 -15.3z m4.7 9.8 c1.8 -0.5 1.9 -1 4.3 -15.3 0.9 -5.2 3.6 -18.6 6.1 -29.8 4.3 -19.9 4.9 -23 4 -22.1 -0.3 0.3 -3.7 12.1 -7.7 26.4 -3.9 14.3 -8.2 29.7 -9.4 34.3 -2.1 7.4 -2.2 8.3 -0.7 7.7 0.9 -0.4 2.5 -0.9 3.4 -1.2z m227.4 -0.2 c-1.3 -3.9 -10.2 -38.7 -19.1 -73.6 -5.2 -20.9 -9.7 -38.3 -9.8 -38.6 -0.1 -0.4 -1.2 -0.3 -2.4 0.2 l-2.2 0.8 4.4 16.8 c2.4 9.2 6.4 24.7 8.9 34.3 2.6 9.6 7.1 27.5 10.2 39.6 5.4 21.2 5.8 22.2 8.1 22.2 1.7 0 2.2 -0.5 1.9 -1.7z m139.8 -9.6 c9.6 -1.7 18.6 -4.5 25.9 -8.2 l4.9 -2.4 -0.9 -7.2 c-0.4 -4 -0.8 -14.3 -0.8 -23 0 -9.8 -0.4 -15.7 -1 -15.7 -3.6 0.1 -3.8 1.4 -3.7 24.7 0.1 15.7 -0.2 22.2 -0.9 21 -1.5 -2.5 -2.3 -32.2 -1.2 -38.4 0.6 -2.9 0.7 -5.3 0.4 -5.3 -0.4 0 -4.7 0.9 -9.7 2.1 -14 3.2 -25.5 4.1 -44.5 3.6 l-17.6 -0.4 -0.7 17.1 c-0.7 17.1 -1.3 21.9 -2.5 21.2 -0.3 -0.2 -0.3 -5.5 0.1 -11.8 1.3 -22.5 1.2 -27.3 -0.4 -27.6 -1.2 -0.2 -1.6 1.9 -2.2 12.5 -0.4 7 -1.1 14.4 -1.6 16.3 -0.5 1.9 -1 6 -1.2 9 -0.4 6.7 -0.1 6.9 17.2 10.4 20 4 27.4 4.4 40.4 2.1z m50.6 -7.3 c61.3 -21.7 59.9 -21 60.7 -29.8 0.3 -3.6 -0.6 -8.9 -3.6 -20.4 -2.3 -8.5 -8 -30.6 -12.7 -49 -4.7 -18.4 -10 -39.1 -11.9 -46 -1.8 -6.9 -5.9 -22.4 -9 -34.5 -3.2 -12.1 -6.7 -23.7 -7.8 -25.7 -2.6 -4.7 -7.6 -7.2 -12.8 -6.4 -3.7 0.6 -23.9 6.7 -28.7 8.7 -1.5 0.6 -2.2 1.5 -1.9 2.7 0.3 0.9 0.8 3.3 1.1 5.3 l0.6 3.5 7.1 -2.3 c8.6 -2.8 10.5 -2.9 11.7 -0.5 1.3 2.5 7 23.4 15.1 55.7 6.4 25.2 16.5 64.4 19.1 73.5 5.7 20.4 9.1 34.7 8.8 37.3 -0.3 3 -0.7 3.2 -15.3 8.8 -8.2 3.2 -19.7 7.5 -25.5 9.6 -7.6 2.8 -10.8 4.5 -11.6 6.2 -0.7 1.2 -1.7 2.8 -2.3 3.4 -0.6 0.6 -1.1 2.6 -1.1 4.3 l0 3.3 5.8 -2.4 c3.1 -1.3 9.5 -3.7 14.2 -5.3z m-474 -13.2 c3.4 -9.3 25.5 -63.4 44 -107.5 2 -4.9 5.9 -14.2 8.5 -20.5 2.6 -6.3 5.1 -12 5.6 -12.6 1.1 -1.3 1.3 -1.1 -11.4 -9.8 -9.7 -6.7 -9.7 -6.7 -10.6 -4.3 -0.5 1.4 -3.5 8 -6.6 14.8 -3.1 6.8 -10 22.5 -15.2 34.9 -5.3 12.4 -13.4 31.5 -18 42.5 -10 23.6 -15.3 37.7 -15.3 40.8 0 4.8 14.5 30.8 16.1 28.9 0.3 -0.4 1.6 -3.6 2.9 -7.2z m6.2 3.5 c0.9 0.4 2.1 -2.3 4.1 -9.2 1.5 -5.4 5.4 -17.9 8.6 -27.8 9.8 -30.2 9.1 -29.9 -3.6 1.8 -13.1 32.8 -14.5 36.9 -12.3 35.7 1 -0.5 2.5 -0.8 3.2 -0.5z m471 -5.5 c27.5 -10.3 29.8 -11.1 30.3 -12 0.3 -0.5 -3.3 -15.2 -7.9 -32.7 -7.7 -28.9 -13.8 -52.6 -29.2 -112.7 -2.9 -11.5 -5.5 -21.1 -5.7 -21.3 -0.3 -0.2 -3.8 0.7 -7.8 2 -4.8 1.6 -7.5 3 -7.7 4.1 -0.7 3.5 7.4 55.3 9.8 62.6 1.2 3.6 1.8 8.4 1.8 14 0 5.8 0.5 9.8 1.7 12.5 1.1 2.6 1.7 6.4 1.6 11 -0.1 3.8 0.8 12.1 2 18.3 2.3 13 2.2 13.4 -5.1 16.7 -3.5 1.6 -4 2.3 -4.7 6.4 -1 5.8 -1 21.5 0.1 30.4 0.6 5.5 1.1 6.7 2.6 6.7 1 0 9.2 -2.7 18.2 -6z m-345.2 -18 c10.4 -29.3 28.5 -85.9 27.6 -86.7 -0.3 -0.3 -19.4 -4.3 -20.6 -4.3 -0.7 0 -3.2 17 -4.8 32.5 -0.4 3.9 -0.4 10.2 -0.1 14 1 10.3 0.9 32.5 -0.1 29.5 -0.4 -1.4 -0.9 -8.6 -1 -16 -0.1 -7.7 -0.5 -12.6 -0.9 -11.5 -0.4 1.1 -1.6 9 -2.5 17.5 -1 8.5 -2.4 20.8 -3.2 27.2 -1.4 11.4 -1.7 17.3 -0.8 15.3 0.3 -0.5 3.1 -8.4 6.4 -17.5z m-149 -19.2 c7.8 -19.7 36.1 -85.7 45.2 -105.2 6.2 -13.4 6.7 -15.1 5.4 -16.5 -2 -1.9 -1.4 -2.8 -16.5 22.4 -21.2 35.5 -33.1 56.5 -44.7 79.4 -5.2 10.1 -9.4 18.5 -9.4 18.7 0 0.8 14.7 9.4 16.1 9.4 0.4 0 2.1 -3.7 3.9 -8.2z m447.5 4.7 c9.6 -2 28.2 -8.1 30.9 -10 1.8 -1.4 1.9 -2 0.8 -9.2 -0.7 -4.3 -1.2 -8.9 -1.2 -10.3 0 -1.7 -0.9 -3 -3 -4.2 -1.7 -0.9 -3.5 -2.9 -4 -4.3 -1.6 -4.3 -1.2 -10.7 1 -14.3 2.9 -4.7 2.6 -7.8 -0.9 -9.6 -5.2 -2.7 -6.9 -13.1 -3 -18.1 2.5 -3 2.5 -2 -2.7 -35 -1.3 -8.2 -4.2 -27.4 -6.4 -42.5 -4.7 -31.3 -8.9 -54.2 -13 -71.2 -2.6 -10.8 -2.8 -12.7 -2.3 -24.5 0.7 -15.7 0.6 -16 -10.2 -35.8 -13.7 -24.9 -25.4 -49.9 -24.1 -51.3 0.3 -0.3 1.5 1.7 2.7 4.4 3.3 7.9 23.2 47.4 23.6 47 0.4 -0.3 -3 -37.3 -5.7 -62.6 -1.8 -16.3 -3.2 -37.7 -3.9 -58.5 l-0.7 -20 -4.8 -12 c-6.7 -16.8 -11.9 -33.3 -9.8 -31 0.5 0.6 2.5 5.7 4.6 11.5 4.9 13.9 5.8 15.1 5.1 7 -0.2 -3.6 -0.7 -13.7 -1 -22.5 -1 -26.2 -3.9 -49.3 -9.5 -74.7 -2.8 -12.3 -5.5 -18.9 -9.2 -22.4 -3.5 -3.2 -16.4 -10.7 -33.8 -19.5 l-10.4 -5.2 -6.6 2.2 c-3.6 1.3 -14.3 6.2 -23.8 10.8 -16.7 8.2 -17.4 8.7 -16.9 11.2 0.3 1.4 1.3 9 2.3 16.9 1.4 11.8 1.5 14.5 0.4 15.2 -0.7 0.4 -9.1 3.4 -18.6 6.5 -9.6 3.2 -17.1 6.1 -16.9 6.6 0.3 0.4 4 3.1 8.3 5.9 11.9 8 21.2 15.1 21.2 16.2 0 1.1 -5.2 11.6 -13.4 26.7 -3.1 5.8 -5.6 10.8 -5.6 11.1 0 0.7 22.5 3 29.5 3 8.7 0 8.5 -0.3 8.5 13.4 0 18 -2.8 58.3 -4.4 64.5 -0.9 3 -2.7 6.7 -4.3 8.3 -3.6 3.8 -18.3 13.6 -25 16.7 l-5.3 2.4 -4.2 -1.9 c-6.2 -2.7 -18.7 -11 -23.1 -15.3 -5.4 -5.1 -6.9 -8.4 -8.1 -18.4 l-1.1 -8.8 -12.7 24.3 c-15.4 29.5 -25.8 52.4 -32.4 71.3 -2 5.6 -4.6 18.3 -5.6 27.5 0 0.8 -0.4 -0.7 -0.7 -3.5 -1.4 -11.8 0.9 -21 12.5 -49.5 7.7 -19.1 35.2 -72.1 51.8 -100 11.1 -18.6 26.2 -45.2 33.2 -58.4 l6.7 -12.9 -2.9 -2.4 c-4.9 -4 -34 -23.3 -35.1 -23.3 -0.6 0 -1.4 0.8 -1.7 1.7 -0.8 2 -0.6 2.2 17.7 15 7.5 5.3 13.7 10.3 13.7 11.1 0 1.3 -5.9 11.9 -24.5 43.7 -22.6 38.9 -47.9 87.5 -60.9 117 -13.2 30 -12.6 27.7 -12.6 49.1 0 10.2 0.5 22.7 1 27.7 0.6 5.1 2.6 23.8 4.5 41.7 8.2 75.4 13.9 109.2 24.6 146.3 11.1 38.6 24 60.6 40.2 68.7 3.4 1.7 6.3 2.7 6.5 2.1 0.2 -0.5 -2 -9.8 -4.8 -20.7 -10.6 -41.1 -12 -47 -12 -51.7 0 -8.4 3.7 -14.2 11 -17.3 2.8 -1.2 28.2 -9.2 60 -18.9 29.2 -8.8 34 -10.6 34 -12.7 0 -1.9 -1.2 -10.9 -4.1 -31 l-1.1 -7.7 -6.8 3.4 c-17.6 8.9 -36.9 15.5 -45.2 15.5 -7.2 0 -10 -1.3 -13.3 -6 -5.1 -7.3 -11.9 -31.5 -9.9 -34.8 0.7 -1 8.8 -4 22 -8 14.1 -4.2 24.5 -8 31.9 -11.7 15.8 -7.8 15.1 -7 12 -14.6 -6.6 -15.9 -11.5 -31.5 -12.9 -40.8 -0.8 -5.4 -2.3 -11.4 -3.2 -13.4 -1.8 -3.8 -1.8 -4.1 3.2 -44.2 1.3 -10.6 1.3 -14.7 -0.1 -35.5 -1.5 -24.4 -2 -37.4 -3.1 -82 -0.6 -27 0.8 -67.4 2.6 -74 1 -3.6 0.7 14.3 -0.7 47.9 -0.4 10.6 -0.3 15.2 0.4 14.8 0.6 -0.4 1.4 -2.8 1.7 -5.4 1.2 -7.9 8.4 -36.1 12.2 -47.3 5.4 -15.8 15 -37.1 21.4 -47.2 10 -16 20.2 -26.5 24.7 -25.6 1.4 0.3 1.2 0.7 -1.3 2.1 -4.9 2.6 -15.1 14.3 -21 24.2 -6.6 11.1 -16 31.6 -20.7 45.2 -4.7 13.3 -11 37.8 -13.8 52.8 -2.5 13.9 -2.6 19.5 -1 56 1.7 39.1 3.7 59.2 10.1 100.9 1.6 11 3 23.1 3 26.9 0 3.8 1.3 13.5 3 21.6 2 9.8 3.6 23.1 5 40.6 2.6 31.1 4.9 49.7 13 103.5 2.7 17.7 4.8 38.3 6.5 62.5 1.2 18 3.6 37.9 4.6 39.1 1 1.2 9.7 3 18.4 3.8 9.9 1 41.3 -0.3 49 -1.9z m29.9 -42.9 c-0.1 -6.1 -1.8 -9.2 -3.4 -6.6 -1.3 2 -1.2 8.7 0.1 11.1 1.9 3.6 3.4 1.5 3.3 -4.5z m-209.9 -8.6 c-0.2 -1.1 -0.7 -2.5 -1 -3 -0.3 -0.6 0.1 -1 0.9 -1 0.9 0 1.6 0.5 1.6 1.2 0 0.6 0.2 0.9 0.5 0.6 0.8 -0.7 -1.5 -10.7 -2.5 -11.3 -0.5 -0.3 -0.5 0.9 0.1 2.7 1.2 4.5 1.2 5.1 -0.6 4.4 -1.6 -0.6 -2 2.8 -0.9 7.1 0.8 2.8 2.4 2.1 1.9 -0.7z m-3.4 -14.9 c-1.5 -2.8 -1.4 -4.1 0.5 -4.1 1.1 0 1.4 -0.5 0.9 -1.7 -0.3 -1 -0.9 -4.8 -1.2 -8.5 -0.5 -5.7 -0.3 -7.1 1.6 -10.2 1.3 -2 1.8 -3.6 1.3 -3.6 -1.9 0 -7.1 7 -7.8 10.5 -0.6 3.5 1.2 13.3 3.9 21.5 1.1 3.4 1.2 3.4 1.5 0.8 0.2 -1.5 -0.2 -3.6 -0.7 -4.7z m209.9 0 c1.4 -2.7 -0.6 -12.1 -2.6 -12.1 -2.8 0 -3 9.3 -0.3 12.7 1.5 1.7 1.6 1.7 2.9 -0.6z m-473.5 -4.7 c8.9 -5.8 25.9 -47.6 44.6 -109.4 12.7 -42 23.8 -92.5 27.8 -126 1.8 -15.1 1.8 -16.4 0.5 -23.5 -0.7 -3.8 -3.3 -17.8 -5.8 -31 -9.5 -50.5 -12.6 -98.7 -9.1 -143 2.2 -28.1 0.1 -24.3 16.8 -31 16.6 -6.7 18.7 -7.9 18.7 -10.5 0 -1.1 -0.2 -2 -0.4 -2 -0.8 0 -36.2 14.3 -36.8 14.9 -2.3 2.3 -4.8 62 -3.6 88.6 1.1 25.6 3 40.8 10.5 84.5 6.2 35.5 6.7 39.6 6.7 53 0 8.5 -0.5 15.5 -1.2 17 -0.9 2 -1.1 -0.1 -1.1 -10.6 -0.1 -13 -1.5 -22.7 -9.6 -67.9 -5.9 -32.8 -9.5 -69.5 -9.5 -97.5 0 -15.1 2 -49.3 3.6 -63.3 0.8 -7.1 0.6 -6.9 18.7 -13.7 l13.7 -5.3 -3.5 -4.1 c-11.5 -13.3 -14.5 -17.2 -14.5 -18.6 0 -0.9 2.6 -4.7 5.8 -8.4 10.5 -12.5 9.9 -10.2 5.2 -18.1 -2.2 -3.8 -4 -7.5 -4 -8.2 0 -1.7 -1 -1.6 -3.4 0.2 -3.3 2.5 -3.9 1.7 -1.2 -1.6 2.7 -3.2 2.9 -4.2 1.7 -7.2 -0.6 -1.6 -1.1 -1.3 -3.5 2.1 -3.4 4.9 -9 8.9 -14.8 10.6 l-4.3 1.3 -1.2 7.3 c-2.2 13 -4.3 42.9 -4.2 60 0 17.6 0.3 17.9 3.9 3 3.5 -14.8 5.1 -20.3 5.7 -19.6 0.9 0.9 -7.7 41 -11.6 53.7 -3.2 10.2 -7.8 29.5 -10 41.4 -3.8 20.4 -4.4 35.7 -2.6 66.3 0.8 15.3 2 32.4 2.5 38.2 1.8 19 3 52.4 2.1 56 -0.9 3.4 -0.9 3.3 -1.1 -2 -0.2 -5.5 -0.2 -5.4 -1.6 3.2 -1.7 10.7 -6.4 29.8 -10.3 41.5 l-3 8.6 2.1 4.1 c1.1 2.3 3 5.4 4 6.9 1.8 2.6 1.9 3.2 0.7 7.5 -1.5 5.5 -9 23.2 -11.4 26.8 -2.1 3.2 -4.3 4 -6.7 2.5 -1.1 -0.7 -2.1 -1.1 -2.3 -0.9 -0.7 0.6 -13.8 41.8 -18.4 57.8 -7.4 25.3 -8.1 28.3 -8.1 33.6 0 9.6 6 26.5 11.4 31.9 3 2.9 8.4 3.4 12.1 0.9z m220.4 -11.6 c-1.7 -6.2 -4 -15.3 -5 -20.2 -1.1 -5 -2.5 -9.3 -3.2 -9.8 -0.6 -0.4 -3.2 -0.8 -5.7 -0.8 -12.4 0 -44.1 -5.3 -63.9 -10.7 -28.6 -7.7 -61.4 -23.2 -78.9 -37.3 -3.4 -2.8 -6.4 -5 -6.6 -5 -0.6 0 -8.4 24 -9.2 28.4 -0.6 3.7 -0.5 4 6.4 10.6 8.2 7.9 20.1 15.5 39.1 25 29.9 14.9 67.4 25.3 105.2 29 6.3 0.7 14.3 1.5 17.9 1.9 3.6 0.4 6.6 0.6 6.8 0.5 0.2 -0.1 -1.1 -5.3 -2.9 -11.6z m-7.9 -33.7 c0 -0.5 -0.6 -4.2 -1.4 -8.2 -0.8 -4.1 -2.2 -11 -3 -15.4 -2.3 -11.8 -7.4 -52.1 -10.6 -83 -1.8 -16.9 -1.7 -16.5 -5.8 -16.5 -6.9 0 -33.7 -3.8 -45.6 -6.5 -12.7 -2.8 -31.6 -8.4 -39.7 -11.6 -6.1 -2.4 -6.9 -2.4 -6.9 -0.1 0 6.2 -10.5 29.6 -20.2 45.3 -10.4 16.6 -9.8 14.3 -8.2 30.4 0.7 7.7 1.8 16.6 2.5 19.7 l1.2 5.8 10.6 5.9 c32.1 18.1 66.6 28.2 116.1 34 10.5 1.2 11 1.2 11 0.2z m-170.2 -16.1 c2.1 0 2.3 -0.4 1.7 -2.9 -0.4 -2.1 0.8 -7.3 4.5 -18.5 l5.1 -15.5 -1.5 -7.2 c-0.8 -3.9 -1.7 -7.3 -2 -7.6 -0.2 -0.3 -1 1.5 -1.6 3.8 -0.6 2.4 -4.3 14.3 -8.3 26.4 -4 12.1 -7.3 22.5 -7.5 23.2 -0.2 0.8 0.8 0.7 3.5 -0.3 2.1 -0.7 4.8 -1.3 6.1 -1.4z m268.7 -21.5 c8.6 -2 40.1 -15.1 43.3 -18 0.4 -0.4 -2.9 -37.9 -3.3 -38.4 -0.2 -0.2 -1.8 0.7 -3.4 1.9 -8.5 6 -48.8 21 -60.8 22.7 -2.7 0.4 -4.2 1 -4 1.7 0.3 0.7 1.5 4.7 2.7 9 6.1 21.7 9.9 24.9 25.5 21.1z m-240.4 -11.1 c-0.5 -3.3 -1.5 -12.1 -2.2 -19.7 l-1.1 -13.7 7 -11.3 c9.8 -15.8 15.7 -27.5 20.1 -40.2 2.6 -7.3 4.4 -11.1 5.5 -11.3 0.9 -0.2 6.5 1.2 12.4 3.2 14.9 4.9 30.9 9.1 43.2 11.5 13.2 2.4 38.8 5.6 39.6 4.8 0.3 -0.3 -0.1 -6.5 -1 -13.9 -2.4 -21 -3 -41.4 -1.6 -66.3 2.9 -55.8 11.4 -105.2 27.6 -160.5 2.5 -8.5 6.1 -20.7 7.9 -27 3.2 -10.8 11.4 -36.2 13.1 -40.4 0.4 -1.1 -5.1 2.8 -12.2 8.5 -7.1 5.8 -14.7 11.8 -16.9 13.4 -3.9 2.9 -3.9 2.9 -2.4 0.5 0.9 -1.4 7.1 -6.7 13.7 -11.9 6.7 -5.2 12 -9.6 11.9 -9.8 -0.2 -0.1 -5.6 1.5 -12.1 3.7 -6.5 2.2 -12.4 4 -13.1 4 -1.7 0 -2.2 2.6 -8 42 -1.3 9.1 -3.5 23.9 -4.9 33 -3.4 23 -4.7 36 -5.5 53.5 -0.5 12.1 -0.4 15.5 0.8 17.6 1.3 2.2 1.2 2.9 -0.2 5.9 -1.1 2.2 -1.7 5.8 -1.7 10.5 0 8 -1.3 10.2 -5.4 9.1 -2.8 -0.7 -3.6 -3 -3.6 -11.6 0 -4.1 -0.6 -7.2 -1.5 -8.4 -1.9 -2.6 -1.9 -7 0 -8.6 1.2 -1 1.5 -3.8 1.5 -12.9 0 -17.3 3.7 -47.1 13.9 -112.6 1.1 -7.1 1.9 -13.1 1.7 -13.3 -0.2 -0.2 -3.7 0.7 -7.8 1.9 -4 1.2 -9.5 2.8 -12.3 3.5 l-5 1.3 4.5 -0.4 c2.5 -0.2 7 -0.7 10 -1 7.1 -0.8 4.7 0.9 -3.4 2.4 -7.4 1.4 -15.6 1.4 -15.6 0.1 0 -0.5 0.8 -1 1.7 -1 0.9 0 2.4 -0.7 3.3 -1.5 0.9 -0.8 7 -3.2 13.5 -5.3 10.6 -3.5 12 -4.2 12.6 -6.5 0.4 -1.5 0.2 -4.1 -0.4 -5.7 -1.4 -3.7 0.4 -7.6 4.4 -9.9 2.2 -1.2 3.2 -1.2 5.6 -0.2 5.2 2.1 6.4 7.9 2.5 12.4 -0.8 0.9 -1.3 1.9 -1.1 2.1 0.4 0.4 44.2 -14.2 57.4 -19.2 23.3 -8.7 34.1 -13.4 55.5 -23.8 12.9 -6.2 26.4 -12.1 30 -13 6.7 -1.8 12 -1.4 12 0.9 0 0.6 1.8 2.2 4 3.4 l4 2.1 0 -3.2 c0 -6.9 -2.9 -12.4 -9.7 -18.4 -3.6 -3.1 -7.8 -8 -9.4 -10.7 -2.4 -4.3 -3.7 -5.4 -7.7 -6.8 -5.6 -2 -11.9 -8.1 -15.1 -14.4 -1.6 -3.2 -2.8 -4.3 -5.3 -4.8 -3 -0.7 -3.6 -0.4 -7 3.6 -3.3 3.9 -5 7.9 -3.2 7.9 1.7 0 6.3 -3.6 6.7 -5.2 0.7 -2.4 2.7 -2.3 2.7 0.1 0 1.1 -1.9 3.5 -4.1 5.4 -3.6 2.9 -4.1 3.8 -3.5 6.1 0.4 1.5 2.2 4.3 4 6.3 l3.3 3.7 6.3 -4.7 c3.5 -2.6 6.6 -4.5 6.9 -4.1 0.3 0.3 -0.1 1.1 -1 1.7 -0.8 0.7 -3.5 2.9 -5.8 4.9 -3.8 3.3 -4.1 3.7 -2.4 4.6 4 2 7 2.1 10.6 0.3 2 -1 3.7 -1.7 3.7 -1.4 0 1.9 -2.9 4.7 -7.3 6.9 -4.7 2.4 -5.9 2.6 -13.8 2.2 -8.1 -0.5 -9 -0.8 -14.6 -4.6 -3.3 -2.2 -6.6 -5.1 -7.5 -6.3 l-1.5 -2.3 -3.1 2.3 c-1.8 1.2 -3.2 2.6 -3.2 3 0 2.2 4.6 6.2 8.3 7.2 l4.2 1.2 -3.3 1 c-2.8 0.9 -4.1 0.5 -9.7 -2.3 l-6.5 -3.3 -2.3 2 c-3.7 3.4 -28 19.2 -48.7 31.8 -37 22.3 -55.9 35.8 -63.6 44.9 -2.1 2.5 -4.2 4.6 -4.6 4.6 -0.4 0 -2.4 -3.1 -4.3 -7 -1.9 -3.9 -3.8 -7 -4.1 -7 -0.3 0 -0.2 0.5 0.1 1 0.3 0.6 0.2 1 -0.4 1 -1.1 0 -12.9 -14.2 -24.3 -29.3 -11.8 -15.5 -19.7 -32.8 -21.8 -47.7 -2.1 -14.8 4.4 -30.1 12.8 -30 2.6 0.1 2.5 0.2 -1.1 2.1 -3.8 2 -7.6 8.1 -7.7 12.2 0 3.3 9.5 -3.1 17.2 -11.5 l7 -7.8 -2.9 -1.1 c-1.5 -0.6 -6.9 -0.9 -11.9 -0.7 -7.7 0.3 -9.6 0.7 -12.7 2.8 -4.7 3.2 -7.5 7.4 -11.6 17.7 -1.8 4.5 -3.9 8.7 -4.7 9.4 -1.8 1.5 -1.8 0.1 0.2 -4.6 0.8 -2 1.4 -3.8 1.2 -4 -0.8 -0.7 -9.6 2.7 -11.8 4.6 -2.1 1.8 -2.5 3.3 -3.1 10 -0.5 5.5 -1.4 9.1 -3.2 12.2 l-2.4 4.5 3.2 6.8 c5.7 12.3 22.4 30.7 39.9 43.9 l7.1 5.4 0.6 -4.1 c0.6 -4.1 3.6 -7.8 6.4 -7.8 0.8 0 2.7 1.2 4.4 2.6 3.5 2.9 4.3 8.2 1.6 10.4 -0.8 0.7 -1.5 2.3 -1.5 3.6 0 2.6 3.7 5.4 14.5 11 5.1 2.7 6.9 4.4 4.5 4.4 -1.6 0 -11.2 -4.5 -15.7 -7.3 l-4.1 -2.6 -0.6 3 c-0.5 2.6 0.6 4.8 7.9 15.5 7.6 11.1 9.4 14.4 8.1 14.4 -0.2 0 -4.1 -5.4 -8.7 -12 l-8.3 -12 -3.3 15.2 c-1.7 8.4 -5.4 24.8 -8.2 36.5 -2.7 11.6 -5.9 27.2 -7 34.5 -2.8 18.5 -4.5 42.2 -3.1 44.7 1.5 2.9 1.2 5.5 -0.9 8.2 -1.3 1.8 -1.9 4.3 -2 9.7 -0.3 9.4 -1.3 12.2 -4.5 12.2 -3.5 0 -4 -1.4 -3.7 -10 0.1 -5.2 -0.2 -8.4 -1.3 -10.4 -1.3 -2.6 -1.3 -3.4 0 -6.4 0.8 -2 1.8 -10 2.4 -19.4 1.5 -22.9 3.6 -36.3 10.5 -65.8 6.1 -26 12.4 -54.3 13.1 -58.7 0.6 -4 0.5 -4.2 -3.6 -7.2 -4.9 -3.5 -6 -3.8 -6 -1.4 0 0.9 -3.6 14.3 -8.1 29.7 -11.8 41.2 -18.5 70.6 -21.9 96.6 -0.5 4.1 -1.4 11 -1.9 15.2 -3.4 25.5 -6.5 70.3 -5.7 80.8 0.8 10.3 5.4 47.5 6.7 54.3 0.5 2.8 0.8 8.8 0.8 13.6 l-0.2 8.6 -0.9 -7 c-0.5 -3.8 -1.4 -10.1 -2 -14 l-1.2 -7 -0.8 5.1 c-0.4 2.9 -2.4 9.6 -4.4 15 -3.3 8.9 -3.7 11.3 -4.4 24.1 -0.8 13.9 -1.5 17.7 -2.9 15.4 -0.9 -1.3 -13.5 24.6 -15.1 30.8 -1.1 4.1 -0.3 12.9 1.6 19.4 0.5 1.6 13.5 12.9 14.2 12.2 0.2 -0.1 -0.1 -2.9 -0.7 -6.1z m231.9 -27.7 c28.3 -9.1 48 -17.8 48 -21.4 0 -1.8 -1 -1.6 -4.5 0.8 -9.2 6.3 -31.7 14.9 -54.7 21 -4.6 1.2 -8.7 2.5 -9.2 2.9 -1.1 1.1 0.3 3.3 1.8 2.7 0.6 -0.2 9 -3 18.6 -6z m-292.7 -6.5 c1.7 -1.8 10.2 -20.3 11.7 -25.4 0.7 -2.2 0.2 -3.9 -2.7 -8.8 -2 -3.3 -3.8 -5.8 -4 -5.6 -0.2 0.2 1 3.2 2.7 6.6 3.5 7 1.9 7.9 -1.9 1 l-2.4 -4.3 -2.9 6.4 c-7.9 17.2 -9.3 23.6 -6.1 29 2 3.4 3.3 3.6 5.6 1.1z m52.3 -16.2 c6.7 -14.3 6.8 -14.6 7.5 -25 0.5 -8.8 1.2 -12 4.1 -19.5 4.6 -11.5 5.9 -17.9 5.9 -28.5 0 -7.7 -1.8 -28.1 -2.5 -28.8 -0.2 -0.1 -0.6 3.5 -1 8 -1.9 24 -9.8 63.5 -21.2 106.8 -1.2 4.3 0.2 1.9 7.2 -13z m285.4 -27 c-1.7 -8.4 -3.3 -19.3 -3.6 -24.4 -0.8 -13.3 -6.7 -53.4 -7.5 -50.5 -0.3 1.3 -1.4 9.2 -2.3 17.4 l-1.8 15 2.6 9.9 c1.4 5.4 2.6 11.1 2.6 12.6 0 5.1 11.8 39 12.7 36.3 0.2 -0.6 -1 -7.9 -2.7 -16.3z m-149.9 -82.7 c1.6 -5.1 11.3 -27 18.7 -42.3 14.1 -29.2 45.4 -86.2 71.5 -130.5 1.9 -3.3 3.3 -6.3 3.1 -6.7 -0.3 -0.4 -5.4 -4.1 -11.3 -8.3 -6 -4.1 -13.2 -9.3 -16 -11.5 l-5.2 -4.1 2.1 -2.6 2.1 -2.7 -8.3 -8.2 c-4.6 -4.5 -8.6 -8 -9 -7.7 -1.9 1 -23.2 71.6 -30.2 99.8 -8.7 35.1 -15 72.5 -17.5 104 -0.6 7.2 -1.4 15.6 -1.7 18.8 -0.7 6.6 -0.1 7.3 1.7 2z m-119.1 -51.8 c1.5 -21 6.2 -58.6 9.5 -75.5 4.1 -20.7 12.7 -55 20.3 -80.8 5 -16.9 6.6 -23.5 5.7 -23.8 -0.7 -0.3 -3 0.4 -5.1 1.5 -2.2 1.1 -6 2.9 -8.5 4 -4.1 1.7 -4.7 2.3 -5.2 5.9 -0.4 2.2 -1.2 4.4 -1.9 4.9 -1.3 1 -11.9 5.8 -23.9 10.7 l-6.6 2.7 -1.1 10.7 c-1.8 16.4 -3.3 49.7 -2.8 59.2 0.3 4.7 0.8 14.1 1.2 21 0.3 6.9 1.6 22 2.9 33.5 2.2 19.6 3.6 28.1 9.6 59 l2.4 12 1.1 -14.5 c0.7 -8 1.7 -21.7 2.4 -30.5z m211.3 11.4 c7.2 -3.6 20 -12.5 23.8 -16.6 2.8 -3 3.9 -5.1 4.8 -9.9 1.3 -6.9 4.1 -49.2 4.1 -62.5 l0 -8.5 -19.1 -1.3 c-10.6 -0.7 -19.5 -0.8 -19.9 -0.4 -1.6 1.8 -6.4 11.2 -6 11.7 0.3 0.2 8.8 1 19 1.6 10.2 0.7 19.4 1.6 20.5 2 2.4 1 -11.6 1.1 -29.4 0.2 l-12.5 -0.7 -3.8 6 c-4.4 7 -4.7 8.5 -1.4 8.5 3.6 0 7.4 -1.6 11.6 -5 2.1 -1.7 4.3 -3 5 -3 0.6 0 3 1.6 5.3 3.5 4.1 3.5 6.9 4.6 15.7 6.2 4.4 0.8 4.5 0.9 4.8 5 0.3 4.1 -2.3 25.8 -3.4 28.7 -0.4 1 0.3 1.6 2.3 1.8 2.5 0.3 2.8 0.7 3.1 4.3 0.4 5.3 -3.2 11 -7 11.1 -1.4 0.1 -6 2.2 -10.2 4.7 -11.2 6.8 -11.1 6.8 -22 0.3 -5.2 -3.1 -10.6 -5.6 -12 -5.6 -3.4 0 -5.5 -3.4 -5.8 -9.6 -0.3 -4.7 -0.2 -4.9 2.5 -5.2 3.1 -0.4 3 0.6 1.3 -15.2 l-1.2 -11.5 -3.8 7.4 -3.8 7.5 0.4 10.5 c0.5 12.9 1.6 15.3 10 21.8 5.4 4.1 21.4 14.3 22.5 14.3 0.2 0 2.3 -1 4.6 -2.1z m-102.3 -14.5 c0 -5.9 -0.3 -7.4 -1.5 -7.4 -1.2 0 -1.5 1.5 -1.5 7.3 0 4.1 0.3 7.7 0.6 8 1.6 1.6 2.4 -1 2.4 -7.9z m-79.5 -4.1 c0.6 -6.1 0.5 -7.3 -0.8 -7.3 -1.1 0 -1.6 1.8 -2 7.8 -0.8 12.7 1.5 12.2 2.8 -0.5z m180 8.8 c1.9 -0.8 1.9 -0.8 -0.3 -2 -2.6 -1.4 -2.9 -3.9 -0.4 -4.8 8.1 -2.7 20 -9.8 18.7 -11.1 -0.3 -0.3 -1.5 0.4 -2.8 1.6 -3.1 2.9 -14.6 8.2 -18.2 8.3 -1.6 0 -2.4 0.3 -1.7 0.6 1.8 0.7 1.5 4 -0.5 4.8 -1.7 0.6 -1.7 0.7 0.1 2.1 2.2 1.6 2.3 1.6 5.1 0.5z m9.8 -6 c6.3 -3.7 6.9 -5.4 1 -2.8 -2.1 0.9 -5 2.1 -6.5 2.7 -1.9 0.6 -2.6 1.4 -2.2 2.5 0.4 0.9 0.9 1.5 1.3 1.3 0.3 -0.2 3.2 -1.8 6.4 -3.7z m-17.6 1.2 c0.2 -0.6 -1 -1.3 -2.7 -1.7 -1.7 -0.3 -4.6 -1.7 -6.5 -3.1 -1.9 -1.6 -3.6 -2.2 -3.9 -1.6 -0.4 0.6 0.8 1.8 2.6 2.7 1.8 0.9 4.4 2.5 5.7 3.6 2.5 1.9 4.2 2 4.8 0.1z m-3.5 -5.9 c-2.9 -1.4 -6.8 -4 -8.7 -5.9 -1.9 -1.8 -3.5 -2.6 -3.5 -1.9 0 1.5 7.2 6.7 12.3 8.9 5.5 2.4 5.5 1.6 -0.1 -1.1z m33.8 -2.2 c0 -1.3 -0.3 -1.2 -2 0.3 -1.1 1 -1.7 2.2 -1.4 2.7 0.8 1.2 3.4 -1.1 3.4 -3z m-46.7 1.4 c0.4 -0.9 -0.3 -1.6 -1.6 -2 -2.7 -0.7 -3.3 0 -1.7 1.9 1.6 1.9 2.6 1.9 3.3 0.1z m29.1 -0.6 c2.5 -1 6.5 -3.7 9 -6 4.8 -4.5 5.6 -7 7.6 -25.5 1.4 -13.1 1.7 -12.2 -4.2 -13 -7 -1 -11.6 -2.9 -15.5 -6.7 l-3.3 -3.2 -2.2 2.1 c-4.6 4.2 -9.2 6.3 -14 6.3 -2.6 0 -5 0.5 -5.3 1 -1 1.6 7.1 1.2 11.2 -0.5 2 -0.9 5.2 -2.7 7 -4.1 l3.2 -2.4 4.6 3.4 c4.7 3.6 9.9 5.6 14.8 5.6 2.6 0 2.7 0.2 2.7 4.8 -0.1 7.8 -2.8 26.1 -4.3 28.2 -2.8 4 -14.6 11 -18.7 11 -3 0 -13.6 -5.8 -16.1 -8.7 -3 -3.6 -4.8 -10.9 -5.9 -24.9 l-0.9 -9.9 0.5 11.5 c0.4 12.7 2.4 21.2 5.7 24.9 2.8 3 13.3 8.1 16.9 8.1 1.4 0 4.7 -0.9 7.2 -2z m-102.9 -5 c0 -1.7 -0.9 -2.9 -2.8 -3.8 -3.6 -1.7 -5.7 -0.9 -5.7 2.2 0 1.7 0.8 2.7 2.8 3.4 4 1.6 5.7 1 5.7 -1.8z m93.2 -4.5 c0.1 -3.6 0.1 -6.5 -0.1 -6.5 -0.3 0 -1.8 1.4 -3.4 3 -1.7 1.7 -3.7 3 -4.6 3 -2 0 -4.8 -2.9 -4.4 -4.8 0.4 -1.9 3.5 -3.9 4.5 -2.8 0.4 0.5 0.2 1.1 -0.4 1.3 -2 0.7 -1.5 3.3 0.6 3.3 2.1 0 3.8 -1.8 3.8 -4 0.1 -0.8 0.4 -2.2 0.7 -3.1 0.5 -1.1 -0.5 -2.4 -3.4 -4.3 -4 -2.6 -7.3 -8 -8.2 -13.1 -0.2 -1.6 0.2 -1.9 2.2 -1.6 3.2 0.4 7.9 2.8 10.8 5.4 l2.3 2.1 -0.7 -4.1 c-0.4 -3 -0.2 -4.7 1.1 -6.7 2.2 -3.4 3.1 -3.3 5.1 0.5 1.5 3 1.5 4.2 -0.2 8.4 -0.6 1.6 -0.2 1.4 2.1 -0.7 1.5 -1.6 3 -2.8 3.4 -2.8 0.3 0 2.7 -0.7 5.3 -1.5 2.6 -0.7 4.9 -1.1 5.2 -0.7 0.2 0.4 -0.5 3.1 -1.6 6 -1.5 4.1 -2.9 5.9 -6.6 8.4 -2.6 1.7 -4.9 3.3 -5.1 3.5 -0.2 0.1 0.3 1.1 1.2 2.1 2.2 2.5 2.4 5 0.2 3.2 -0.9 -0.7 -1.8 -1 -2.1 -0.7 -0.4 0.3 0.9 1.5 2.7 2.6 2.3 1.4 3.7 1.7 4.4 1 0.7 -0.7 0.5 -1.3 -0.5 -1.9 -1 -0.6 -1.2 -1.2 -0.4 -2 0.7 -0.7 1.5 -0.6 2.8 0.3 1.5 1.1 1.6 1.7 0.5 4 -1.5 3.2 -3.3 3.4 -7.4 0.7 -1.6 -1.1 -3.3 -2 -3.6 -2 -0.4 0 -0.7 2.5 -0.8 5.5 0 3.2 0.3 5.5 0.9 5.5 2.3 0 8.9 -4.1 11.3 -6.9 1.6 -2 2.8 -5.2 3.5 -9.3 1.4 -8 2.6 -21.8 2 -21.8 -4 0 -12.2 -2.7 -15.5 -5 l-4.1 -3 -5.2 3.2 c-3.6 2.2 -6.7 3.3 -10.6 3.6 l-5.5 0.5 0.6 9.6 c0.9 12.9 2.2 19.5 4.7 22.6 1.9 2.5 10.9 7.7 11.7 6.9 0.3 -0.3 0.6 -3.4 0.8 -6.9z m3 -3.2 c-0.2 -2.1 -0.4 -0.4 -0.4 3.7 0 4.1 0.2 5.8 0.4 3.8 0.2 -2.1 0.2 -5.5 0 -7.5z m-24.1 4.8 c-1.1 -1.8 -3.6 -1.3 -3.6 0.7 0 1 0.3 2.2 0.7 2.6 1 1 3.7 -2 2.9 -3.3z m50.4 1.4 c0 -2.6 -1.4 -3.3 -2.5 -1.5 -0.9 1.4 0.1 4 1.5 4 0.5 0 1 -1.1 1 -2.5z m-204 -1 c4 -2.1 4.3 -6.5 0.5 -6.5 -4 0 -8.1 5.1 -5.8 7.3 1 1 2.1 0.9 5.3 -0.8z m80 -10.9 c0 -8.5 1.7 -29.3 3.6 -44.6 2.7 -22.1 9.2 -66 12.3 -83.5 2.7 -14.9 2.9 -19.5 1.1 -19.5 -2.6 0 -4.4 9.3 -11.9 61 -3.4 22.8 -6.7 47.1 -7.5 54 -1.8 15.6 -2.9 37.4 -2 38.3 0.4 0.4 1.6 0.7 2.6 0.7 1.6 0 1.8 -0.9 1.8 -6.4z m-80.2 1.6 c0.8 -0.6 1.6 -5.2 2.2 -13.3 2 -26.2 4 -38.5 12.5 -73.9 8.8 -37 13.3 -62.6 11.2 -64.6 -1.5 -1.5 -2.5 1.3 -4.1 11.1 -1.8 10.6 -4.3 22.4 -10.1 47 -5.5 23.2 -8.2 35.5 -9 41 -0.5 2.8 -1 5.7 -1.2 6.5 -2.2 9.8 -5.1 47 -3.6 47 0.4 0 1.4 -0.4 2.1 -0.8z m180.2 -3.9 c-1.5 -2 -1.9 -3.4 -1.4 -6 0.5 -2.7 0.3 -3.3 -1.1 -3.3 -1.4 0 -1.6 0.7 -1.2 3.3 0.3 2.1 -0.2 4.1 -1.3 5.7 l-1.8 2.5 4.4 0.2 4.4 0.1 -2 -2.5z m-8.5 -4.8 c-1.6 -1.3 -2.4 -2.4 -1.7 -2.5 0.7 0 1 -0.5 0.6 -1.1 -0.4 -0.8 -0.9 -0.7 -1.5 0.2 -0.8 1.1 -1.2 1 -2.5 -0.6 -0.8 -1.1 -1.8 -3.2 -2.1 -4.7 -0.3 -1.6 -0.9 -2.8 -1.4 -2.8 -1.2 0 -1.1 0.3 0.6 4.7 1 2.5 3 4.8 5.8 6.5 5.2 3.4 6.1 3.6 2.2 0.3z m19.5 -4.5 c0.5 -1 1.4 -3 2 -4.4 0.9 -2.5 0.8 -2.6 -1.8 -2 -3.6 0.9 -4.3 1.6 -3.2 3.4 0.8 1.3 1 1.2 1 -0.2 0 -1 0.7 -1.8 1.5 -1.8 1.9 0 0.9 2.7 -2.4 6.4 -2.4 2.6 -2.4 2.8 -0.4 1.7 1.3 -0.6 2.7 -2 3.3 -3.1z m-4 0.5 c0.7 -0.8 0.8 -1.5 0.2 -1.5 -0.5 0 -1.5 0.7 -2.2 1.5 -0.7 0.8 -0.8 1.5 -0.2 1.5 0.5 0 1.5 -0.7 2.2 -1.5z m-14.6 -1.8 c-0.2 -0.7 -1.4 -1.9 -2.7 -2.6 -2.1 -1.3 -2.1 -1.2 0.2 1.3 2.7 2.9 3.3 3.2 2.5 1.3z m-5.8 -4.4 c-1.1 -1.1 -1.7 0.4 -0.9 2.3 0.7 1.8 0.8 1.8 1.1 0.1 0.2 -1 0.1 -2.1 -0.2 -2.4z m12.4 -2.8 c0 -2.9 -1.6 -4.1 -2.4 -1.9 -0.8 2.1 0.3 5.6 1.5 4.9 0.5 -0.4 0.9 -1.7 0.9 -3z m-385.5 -8.5 c23.2 -4.9 54.5 -13.7 67.5 -19 2.5 -1 11.7 -4.4 20.5 -7.6 15.3 -5.4 40.5 -15.1 41.1 -15.7 0.2 -0.2 2.3 -7.3 4.8 -15.8 l4.4 -15.4 0.1 -25 c0.1 -26 1.2 -42 3.6 -56.5 0.8 -4.7 1.5 -8.8 1.5 -9.1 0 -0.3 -2.4 -1.1 -5.4 -1.8 -3 -0.7 -6 -1.9 -6.6 -2.7 -0.7 -0.7 -1.8 -1.4 -2.5 -1.4 -1.4 0 -11 8.5 -23.5 20.7 -8.7 8.4 -12.1 10.3 -18.8 10.3 -4.7 0 -6.3 1.1 -12.8 8.8 -6.8 8 -7.4 8.4 -23.6 15.2 l-12.8 5.3 -0.1 3.6 c-0.5 12.5 -0.2 13.8 5.4 24.4 7 12.9 10.7 23.9 10.6 30.9 -0.1 4.6 -0.2 4.9 -0.9 2.3 -0.5 -1.6 -1.4 -5.6 -2 -8.8 -0.6 -3.1 -3.9 -11.2 -7.2 -18 l-6.1 -12.2 -1.2 7.1 c-0.7 3.9 -1.6 12.2 -2 18.4 -0.7 11.7 -2 17.1 -6 25 -2.5 4.9 -10.5 15.4 -11.2 14.7 -0.2 -0.3 1.1 -2.9 3 -5.8 7.8 -12.3 11.7 -23.4 11.6 -33.4 0 -3.8 -0.1 -3.9 -1.5 -2 -0.8 1.1 -5.4 8.8 -10.1 17 -9.8 17.1 -9.1 16 -9.8 15.3 -0.7 -0.6 7 -15.8 13.3 -26.3 8.9 -15 9.5 -17.3 10.3 -42 0.4 -13.7 1.3 -24.5 2.2 -28.5 0.9 -3.6 5.6 -23.1 10.6 -43.4 5 -20.3 9.1 -38.3 9.1 -40.1 0 -1.7 -0.6 -4 -1.4 -5 -1.3 -1.8 -1.4 -1.8 -2.1 0.5 -0.5 1.5 -0.4 2.5 0.4 2.8 2.2 0.7 1.1 4.1 -2.2 6.6 -7.7 5.9 -25.6 11 -44.2 12.8 -10.2 0.9 -13.3 0.8 -19.8 -0.5 -9 -1.8 -12.8 -4.3 -16.8 -10.5 -3.5 -5.5 -3.8 -10.6 -0.9 -12.2 1.5 -0.8 2 -0.8 2 0.3 0 0.7 -0.5 1.8 -1.1 2.4 -0.8 0.8 -0.5 2.2 1 4.9 l2 3.9 0.1 -3.1 c0 -1.7 0.7 -5.1 1.6 -7.7 2.4 -7 1.7 -8.1 -3.1 -4.9 -5.6 3.9 -7.2 7.3 -9 20 -1.6 10.9 -1.6 11.4 0.2 12.7 1.5 1.1 1.8 2.7 1.8 8.8 0 6.6 -0.3 7.9 -2.4 10.1 -1.4 1.4 -3 2.6 -3.8 2.6 -1.8 0 -1.7 6 0.3 10 3 5.9 0.1 17.5 -4.7 18.7 -1.2 0.3 -1.9 1.4 -1.9 2.9 0 1.2 -3.3 15.3 -7.2 31.1 l-7.3 28.8 0.1 13.5 c0.1 9 0.7 16.7 2 23 l1.9 9.5 0.6 -8 c0.6 -8.6 0.8 -7.3 1.5 10.9 0.5 11.6 1.8 17.2 4.7 20.4 2.8 3.1 8.9 6.2 15.2 7.9 6.8 1.7 24.3 0.9 37 -1.7z m384.5 -103 c8.5 -2.8 17.2 -5.5 19.3 -6.1 3.5 -0.9 3.8 -1.3 3.3 -3.7 -0.3 -1.5 -1.3 -8.3 -2.1 -15.1 -0.8 -6.8 -1.6 -12.6 -1.8 -12.8 -0.2 -0.2 -1.2 0 -2.2 0.3 -1.6 0.6 -1.7 1.7 -1.1 9.3 0.3 4.7 0.9 10.5 1.2 12.8 0.5 3.2 0.3 4.4 -0.7 4.7 -16.4 5 -29.4 9.3 -33.3 10.9 -4.4 1.9 -4.7 2.2 -3 3.4 2.6 1.9 3.4 1.8 20.4 -3.7z m-0.4 -7.9 c7.1 -2.3 13.4 -4.3 14.1 -4.5 0.8 -0.3 0.9 -1.6 0.2 -4.3 -0.5 -2.1 -0.9 -7.1 -1 -11 -0.1 -4 -0.4 -7.3 -0.8 -7.3 -0.7 0 -15.6 5.6 -24.1 9 -3 1.2 -10.4 3.9 -16.4 6.1 -6 2.1 -11.2 4.1 -11.5 4.5 -0.3 0.3 3.2 4.1 7.8 8.4 l8.5 7.7 5.1 -2.2 c2.8 -1.3 10.9 -4.2 18.1 -6.4z m-93.5 -23.6 c4.7 -6 8.8 -11.5 9.2 -12.1 1.1 -1.8 -6.9 0.2 -12.7 3.2 -6 3.1 -7.1 2.5 -1.8 -1.1 4.2 -2.8 12 -5.5 15.7 -5.5 1.4 0 3.9 -1.8 6.6 -4.7 2.3 -2.7 10.4 -11.3 17.8 -19.2 9.2 -9.7 13.5 -14.9 13.3 -16.3 -0.1 -1.5 0.2 -1.8 1.7 -1.3 1.4 0.4 3.2 -1.1 7.6 -6.5 3.2 -3.9 5.6 -7.2 5.4 -7.3 -0.2 -0.1 -2.1 -1.1 -4.2 -2.1 -2 -1.1 -4.7 -3.4 -5.8 -5.3 -2.5 -4 -3.6 -13 -2.1 -17.3 1.4 -3.8 -1.4 -17.8 -5.7 -28.9 l-2.7 -7 -4.5 4.6 c-5.2 5.5 -23 18.9 -34.9 26.3 -11.7 7.3 -19.8 11 -24.2 11 -2.1 0 -3.8 0.2 -3.8 0.4 0 0.3 0.9 4.4 2.1 9.3 2.8 11.8 3 24.4 0.5 30.1 -1 2.3 -2.3 4.2 -2.9 4.2 -0.5 0 -0.7 -0.7 -0.3 -1.5 1.4 -3.9 2.6 -14.2 1.9 -16.3 l-0.9 -2.3 -3.9 3.1 c-2.1 1.7 -6.5 4.7 -9.6 6.6 -3.2 1.9 -6.1 4.5 -6.5 5.7 -1.2 3.5 -0.9 24 0.3 24.4 4 1.4 13.9 9.3 15.6 12.6 2.5 4.9 1.6 5.9 -1.1 1.3 -2.1 -3.5 -12.8 -11.3 -13.9 -10.2 -0.9 0.9 2.6 16.8 5.9 26.8 1.7 5.1 4.8 12.7 6.8 16.9 l3.8 7.5 9.4 -9 c5.2 -5 13.2 -14 17.9 -20.1z m-226.9 9.5 c1.5 -0.7 5.3 -4.6 8.3 -8.6 6 -7.8 7.7 -8.8 17.3 -9.8 5 -0.5 5.7 -0.9 12.5 -7.8 4 -4 11.1 -10.7 15.9 -14.8 4.7 -4.1 8.7 -8 8.7 -8.5 0.1 -0.6 1.3 -1.6 2.9 -2.3 1.5 -0.7 4.5 -2.3 6.7 -3.7 2.2 -1.4 5.9 -3 8.3 -3.6 4 -1.1 4.2 -1.3 4.2 -4.8 0 -5.7 -3 -10.2 -9.6 -14.3 -10.3 -6.5 -9.6 -6.3 -8.8 -3.1 1.9 7.7 6.3 13.1 13 15.5 4.4 1.6 4.4 3.2 -0.1 2.4 -8.4 -1.6 -15.3 -6.3 -18.6 -12.7 -1 -2.1 -2.5 -7.6 -3.2 -12.1 -0.7 -4.6 -1.6 -7.8 -1.9 -7.3 -1.8 3 -4.8 15.4 -4.8 19.9 0.1 9.6 5.4 17 13.1 18.2 4.6 0.8 4.2 2.4 -0.5 2.4 -4.5 0 -11.9 -2.3 -15.6 -5 -2.9 -2.1 -8 -10.4 -8 -13.2 -0.1 -3.2 -1.6 -4 -4.6 -2.5 -3 1.5 -6.7 2.1 -11.5 1.9 -3.5 -0.3 -11.7 -5.9 -14 -9.6 -3.1 -5.1 -2.1 -5.9 1.9 -1.6 3.3 3.3 4.5 4 7.8 4 5.3 0 12.4 -3.7 15.1 -7.9 1.7 -2.5 2.3 -4.9 2.3 -8.7 0 -5 -0.2 -5.5 -4.1 -8.6 -15.6 -12.4 -19 -17.8 -19.7 -31.8 -0.5 -11.2 1.2 -18.4 9.5 -38.9 l6.6 -16.4 -3.1 -2.6 c-1.7 -1.4 -4.4 -4.7 -6 -7.4 l-3 -4.7 -2 4.8 c-5 11.5 -6.8 18.9 -8.8 34.3 -1.7 14.1 -5 24.6 -10.5 33.8 l-3.9 6.3 2.5 3 c3.4 4 3.2 7.6 -1 19.1 -3 8.4 -3.2 9.7 -1.9 10.8 2.3 1.9 4.4 6.5 4.4 9.6 0 1.5 -2.5 12.9 -5.5 25.3 -11.4 46.5 -15.4 63.6 -16.1 67.7 l-0.6 4.3 11.8 -4.9 c6.6 -2.7 13.1 -5.4 14.6 -6.1z m125.3 10 l2.7 -1 -9.2 -10 -9.3 -10 4.8 -6.1 c4.7 -6 6.1 -9.4 3.8 -9.4 -1.5 0 -13.3 13.5 -13.3 15.3 0 0.6 3.7 5.5 8.3 10.8 4.5 5.3 8.4 10 8.5 10.5 0.4 1.1 0.5 1.1 3.7 -0.1z m63 -7.5 c-5.9 -14.6 -10.5 -37.6 -10.5 -51.3 0.1 -13.9 4.5 -28.1 11 -35.5 4.3 -5 5.7 -4.7 2 0.4 -2.7 3.7 -7 13.6 -7 15.9 0 1.3 8.4 -3.9 13.9 -8.6 4.3 -3.7 4.3 -3.8 3.7 -8.7 -0.4 -2.7 -1.6 -7.3 -2.7 -10.2 -1.7 -4.6 -2.5 -5.5 -6 -6.9 -3.8 -1.6 -4.1 -1.5 -9.2 1 -8.5 4.3 -13.1 7.9 -17.7 13.9 -3.3 4.3 -6 6.5 -11.3 9.2 l-7 3.5 0.6 7.6 c1.5 17.9 9.5 34 29.7 59.7 4.8 6.1 9.5 12.3 10.5 13.8 2.7 4.2 2.7 2.8 0 -3.8z m51.4 1.5 c2.3 0 3.2 0.6 3.9 2.8 l1 2.7 0.1 -2.5 c0.1 -3.2 -1.6 -5 -4.8 -5 -3.1 0 -6.1 2.7 -6.1 5.4 0.1 1.9 0.3 1.8 1.6 -0.6 1.1 -2.1 2.2 -2.8 4.3 -2.8z m-101.4 -0.1 l7.5 -3.2 -12.2 -11.7 -12.3 -11.7 -4.4 5.9 -4.4 5.9 3.4 3.7 c8.3 9.1 13.4 14.2 14.1 14.2 0.5 0 4.2 -1.4 8.3 -3.1z m32.9 -4 c-2.7 -2.9 -7.8 -2.2 -8.2 1.1 -0.3 2.3 -0.3 2.4 1 0.7 1.9 -2.5 6 -1.9 7.3 1.1 0.8 1.8 1.1 2 1.3 0.7 0.2 -0.9 -0.4 -2.5 -1.4 -3.6z m57.5 -4.3 c2.4 -2 28.2 -18.1 39.1 -24.4 14.7 -8.4 50 -32.2 50 -33.7 0 -0.8 -0.4 -1.6 -0.9 -1.9 -0.5 -0.4 -1.5 -2.9 -2.2 -5.6 -1.2 -4.7 -2.9 -6.8 -2.9 -3.6 0 2.4 -9.7 10.3 -14.7 12 -5.4 1.9 -10.7 2 -15 0.5 -3 -1 -3.3 -0.8 -13.5 9.8 -18.5 19.1 -29.9 31.6 -36.4 40.1 -6 7.7 -7.2 10 -3.5 6.8z m-337.3 -15.1 c1.6 -3.9 1.8 -9.3 0.5 -11.4 -2.4 -3.8 -6.2 6.3 -4.7 12.4 0.9 3.5 2.4 3.1 4.2 -1z m197.7 -25.9 c4.8 -2 10 -7.5 13.2 -14 3.8 -7.9 3.9 -16 0.2 -24 -2.7 -5.9 -1.1 -6.3 1.9 -0.4 2 3.8 5.3 19.1 5.5 24.8 l0.1 4.5 1.5 -3.5 c1.1 -2.5 1.4 -6 1.1 -12.5 -0.4 -11.4 -2.4 -15.6 -13 -27.1 -8.4 -9.3 -13.1 -16.6 -15.3 -24.1 -1.9 -6.6 -2 -10.7 -1 -26.3 l0.9 -13.5 0.8 9.8 c0.6 8.2 1.3 10.9 4.2 17.1 3.5 7.2 9.3 14.3 13.8 16.7 1.7 0.9 1.4 0.2 -1.4 -2.9 -8.4 -9.3 -11.8 -21.1 -12.2 -42 l-0.2 -14.3 -5.3 -3.1 c-9.3 -5.2 -17.1 -14.5 -23.7 -28 -3.5 -7.2 -3.5 -7.3 -2.9 -2.8 1.2 7.5 4.3 17.9 6.5 21.5 1.2 1.9 3.6 4.6 5.3 6 2.3 1.8 2.7 2.5 1.5 2.5 -1 0 -3.4 -1.5 -5.4 -3.2 l-3.7 -3.3 0.7 2.8 c4.5 18.3 1.3 41.9 -9.4 67.7 -10.5 25.4 -12.7 35.6 -9.6 44.5 1.8 5.4 5.7 10.9 8.7 12.6 1.9 0.9 1.8 0.5 -0.8 -3.8 -2.5 -4.2 -2.8 -5.8 -2.7 -12.8 0 -6.5 0.6 -9.3 2.8 -14.5 1.5 -3.6 3.8 -9.2 5.1 -12.4 l2.2 -6 0.5 6.6 c0.6 10.4 3.3 13.5 21.3 24.5 2.7 1.7 4.2 3.9 7.4 11.3 0.9 2 1.1 1.3 0.7 -4.2 -0.2 -4.8 -1.1 -8 -2.9 -11.2 -2.8 -5 -2 -6.3 1.1 -1.8 4.4 6.3 5.5 16.1 2.6 24.5 -2.2 6.4 -8.6 13.5 -12.9 14.3 -2 0.3 -3.2 1.1 -2.9 1.6 0.9 1.4 11.3 0.3 15.7 -1.6z m-192.8 -2 c1.9 -2.9 1.7 -12.7 -0.3 -13.4 -2.6 -0.8 -5.3 9.8 -3.6 14.2 0.9 2.2 2.1 2 3.9 -0.8z m182.2 -1.6 c3.2 -1.9 5.9 -5.7 4.9 -6.7 -0.9 -0.9 -11.5 4 -13.8 6.4 l-2.1 2.3 3.9 0 c2.1 0 5.3 -0.9 7.1 -2z m286.8 -8.9 c1.7 -0.7 1.6 -0.9 -1 -1.5 -12.8 -3.1 -21.2 -20 -18.7 -37.6 1.3 -9.4 4.2 -16 11.6 -27.4 10.1 -15.3 11.1 -18.2 11.1 -32.6 0 -13 -2.1 -23.6 -7.6 -38 -3.9 -10.4 0.7 -3 9.2 15 l8.4 17.5 0 9.1 c-0.1 8.4 -0.3 9.4 -3 13.6 -1.7 2.5 -5.8 6.9 -9.3 9.7 -3.4 2.9 -7.4 7 -8.7 9.2 -5.7 8.9 -9.5 20.9 -9.5 29.3 l0 3.1 4.8 -5.3 c2.6 -3 6.5 -8.8 8.8 -13 4.8 -8.9 6.9 -10.5 4.7 -3.5 -1.9 6.2 -1.2 15.6 1.5 20.8 4.2 8.2 12.5 13.5 22.4 14.1 4.3 0.3 5.5 0.1 3.8 -0.5 -7.6 -2.5 -12.9 -7.1 -15.5 -13.5 -2.2 -5.2 -2.3 -16.7 -0.2 -23.7 1.9 -6.5 10.5 -18.9 15.7 -22.8 4 -3 3.5 -2.1 -3.8 7 -5.8 7 -8.1 11.7 -9.8 20.1 -1.3 6.2 -1.2 11.2 0.2 15.7 0.6 1.9 6.7 -4 10.2 -9.8 2 -3.4 2.6 -6.1 3 -12.2 0.3 -4.4 0.8 -7.9 1.2 -7.9 0.4 0 1.5 3.5 2.5 7.9 2.1 9.4 1.7 17.1 -1.3 23.2 l-2.1 4.4 3.3 -3.6 c4.5 -4.8 6.1 -12.2 5 -23.3 -0.4 -4.4 -0.7 -10.1 -0.5 -12.6 0.4 -5.4 3.5 -13.2 6.3 -15.7 2.1 -1.8 2.1 -1.8 0.5 0.7 -2.5 4 -4.7 12.9 -4.7 19 0 11.1 7.3 19 17.4 19 l4.1 0 -3.3 -1.7 c-8.8 -4.3 -12.3 -18.2 -7.2 -28.4 1 -1.9 5.1 -7.1 9.1 -11.5 10.1 -11.1 11.4 -14.3 11.4 -27.9 -0.1 -13.4 -1.6 -17.5 -12.5 -34.6 -16.5 -25.7 -19 -29.9 -24.3 -40.4 -3 -6 -6.6 -13.9 -8 -17.5 -1.3 -3.6 -4 -9.6 -5.9 -13.5 -2 -3.8 -5.2 -12.8 -7.3 -20 -2 -7.1 -3.9 -13.2 -4.2 -13.5 -1.7 -1.6 7.8 37.7 14.5 60 4.9 16.3 7.5 27.4 8.8 38 0.4 3 1.3 6 1.9 6.7 1.7 1.6 5.4 15.5 6.4 24 1 8 -0.3 19 -2.8 24.8 -2 4.4 -8.1 11.5 -10.1 11.5 -0.7 0 0.3 -1.7 2.2 -3.8 5.3 -5.9 7.2 -11.8 6.5 -20.5 -0.3 -3.9 -1.2 -9 -2.1 -11.2 -1.4 -3.8 -1.4 -3.4 -0.9 8.6 0.4 8.2 0.2 13.2 -0.5 14.5 -0.8 1.5 -1.1 -0.2 -1 -7.4 0 -6.4 -0.5 -9.9 -1.4 -11.4 -0.8 -1.2 -5 -3.6 -9.4 -5.4 l-7.9 -3.2 0.4 -13.1 c0.2 -7.8 0 -13.6 -0.6 -14.3 -0.6 -0.7 -2 -6 -3.1 -11.8 -1.2 -5.8 -3.3 -14.4 -4.7 -19.3 -2.5 -8.9 -3.3 -14.6 -1.3 -9.7 2.3 5.7 6.2 20.1 7.8 29.5 1 5.5 1.9 8.4 1.9 6.5 0.2 -6 -1.9 -20 -4.5 -31 l-2.5 -10.5 -3.7 0 c-2.4 0 -7.2 -1.7 -13.6 -4.8 l-9.8 -4.8 0.4 -6.3 0.4 -6.4 -4.5 4.4 c-2.4 2.4 -4.7 4.4 -5 4.4 -0.3 0 -1.2 0.4 -1.9 0.9 -1.7 1 1.9 12.1 5.5 16.9 5.1 6.8 6.5 11.8 7.4 26.1 0.4 7.5 1.3 17.4 1.9 22.1 1.2 9.1 0.7 16.8 -1.6 26.5 -2.3 9.3 -5.1 15.1 -13.1 27.2 -8.6 13 -12.2 21.1 -13 29.6 -0.5 6.3 1 14.7 2.7 14.7 0.5 0 1.5 -1 2.1 -2.2 0.7 -1.3 6.5 -7.7 12.8 -14.3 13.3 -13.7 18.4 -22.3 20.5 -34.5 1.2 -7.3 2.6 -10.3 2.6 -5.4 -0.1 5.6 -2.8 15.5 -6 22 -2.1 4.4 -6.2 9.7 -12.9 16.7 -19.8 20.9 -24.4 28.9 -25.8 44.9 -0.5 6.6 -0.2 8.7 1.7 14 2.2 6.1 4.5 9.8 6.1 9.8 0.4 0 0 -1.4 -0.8 -3.2 -5.7 -11.2 -1.8 -29.8 8.6 -41.9 4.1 -4.7 14.7 -12.6 15.6 -11.7 0.3 0.3 -1.8 2.5 -4.7 4.8 -10.7 8.7 -14.8 14.9 -14.8 22.8 0 13.6 8.8 26 21.5 30.4 5.2 1.8 12.6 2.2 16 0.9z m-67 -7 c4.6 -2.2 10 -7.3 12 -11.1 0.8 -1.5 1.9 -5.7 2.6 -9.3 1.7 -9.3 0.3 -14.8 -8.6 -32.6 -7.8 -15.7 -9.2 -20 -10.6 -33.1 -0.9 -8.7 0.4 -38.3 2.1 -45 0.7 -3.3 0.8 -3.2 0.9 1.9 0.2 9.5 1 7.1 6.5 -20.4 8.2 -40.3 10 -58.5 8.5 -85.3 -1.7 -31.1 -7.5 -53.7 -20.9 -80.4 -16.3 -32.4 -41.1 -54.4 -64 -56.7 -10.9 -1.1 -11.6 -2.5 -1 -1.9 10.4 0.6 17.4 3.2 27.7 10.1 17.1 11.4 35.3 34.8 44.5 57.2 10.6 25.8 15.1 44.1 16.6 68.6 l0.9 13.7 5.4 9.7 c2.9 5.3 6.8 11.3 8.6 13.4 l3.3 3.6 -1.1 -3 c-0.6 -1.6 -4.4 -11.9 -8.5 -22.9 -4.3 -11.2 -7.4 -21 -7.2 -22.5 0.2 -2 0.9 -1 3.1 4.9 11.6 30.6 11.8 31 13.6 30 3 -1.6 13.1 -13 13.1 -14.8 0 -2 4.4 -19.9 5.6 -22.7 0.5 -1.3 -0.3 -0.9 -2.7 1.4 -1.8 1.8 -5.8 4.4 -8.6 5.8 -5.9 2.7 -16.3 4.3 -16.3 2.4 0 -0.6 1.5 -1.1 3.3 -1.1 5.1 0 11.9 -2.7 18.7 -7.4 4.8 -3.4 6.7 -5.4 8.6 -9.6 1.3 -2.9 2.3 -5.5 2.1 -5.7 -0.2 -0.2 -3.3 0.4 -6.8 1.3 -11.8 3 -30.4 0.3 -35 -5.2 -0.8 -0.9 0.3 -0.8 3.3 0.6 6.4 2.8 17.5 4.4 25.2 3.5 7.6 -0.8 9.2 -2 3.8 -2.9 -13.5 -2.2 -36.2 -20.3 -45.1 -35.9 -2.3 -4 -2.1 -3.9 3.2 1.9 8.2 8.9 18.5 16.3 32.7 23.5 6.8 3.4 11.9 6.4 11.2 6.7 -1.7 0.5 -18.4 -7.5 -26.4 -12.8 l-6.3 -4.1 4 3.5 c12 10.8 36.1 20.4 38.1 15.2 1.2 -3.2 -14.7 -26.9 -23.7 -35.1 -2.4 -2.2 -11.5 -9.3 -20.1 -15.8 -14.6 -10.9 -17.9 -13.7 -16.2 -13.7 0.3 0 7.9 5.3 16.8 11.7 16.9 12.3 28.7 23.3 35.2 33 2.1 3.2 4.2 6.2 4.6 6.7 0.9 1.1 -3.6 -15.3 -5.8 -21.4 -3.5 -9.5 -11.4 -23.9 -17.5 -31.9 -3.5 -4.6 -7 -9.2 -7.8 -10.3 -0.7 -1 -0.9 -1.8 -0.3 -1.8 2.8 0 15.8 18.2 22.4 31.5 5.5 11 7.2 16 10.3 30.5 1.3 6.2 2.7 11.6 3.2 12.1 0.6 0.6 1.7 0.1 2.7 -1 1.6 -1.8 1.7 -2.8 0.8 -7.8 l-0.9 -5.8 -0.3 6 -0.3 6 -0.8 -5 c-0.4 -2.7 -1.2 -8.8 -1.8 -13.5 -2.8 -21.7 -19.3 -48.7 -41.8 -68.1 -17.2 -14.9 -33.2 -24.3 -51.8 -30.4 -13.7 -4.6 -21.5 -5.7 -37 -5.4 -9.3 0.1 -15 -0.3 -20 -1.4 -3.8 -0.9 -9.7 -1.7 -13.1 -1.7 -19.5 0 -50.8 10.2 -71.4 23.3 -22.1 14.1 -41.1 32.4 -54.9 52.9 -5.6 8.4 -19.7 35.6 -18.8 36.4 0.3 0.3 1.8 -1.6 3.3 -4.3 6.1 -10.7 7.4 -12.8 7.4 -11.9 0 0.5 -3.7 7.9 -8.2 16.5 -16.7 31.8 -22.9 46.4 -29.3 68.2 -5.7 19.8 -6.7 25.3 -7 42.4 -0.3 13.3 -0.2 14.5 0.5 7 1 -11.3 4.9 -27.6 9.6 -40.2 4.1 -11 17.2 -38.8 17.9 -38.1 0.3 0.3 -0.6 3.6 -1.9 7.5 -4 11.3 -6.6 29.1 -6.6 44.9 0.1 12.5 0.5 17.4 2.9 33.4 l0.7 4.5 1.8 -8 c1 -4.4 2.1 -9.1 2.6 -10.5 1.9 -5.5 1 3.5 -1.5 15.5 -3.8 18.1 -7.6 29.4 -17 50 -8.7 18.9 -11.3 34 -8 46.2 1.9 7.1 5 10.8 17.5 21.3 4.9 4.2 5.4 5 5.6 9 0.4 8.1 -6 16.6 -14.7 19.7 -3 1.1 -4.4 2 -3.6 2.5 2.3 1.4 7.2 0.8 12.5 -1.7 4.9 -2.3 5.2 -2.6 5.2 -6.1 0 -5.8 2.7 -14.6 8.5 -28.1 l5.5 -12.5 -3.5 -6.2 c-6.6 -11.9 -9.4 -31.3 -6.1 -42.1 1.1 -3.6 1.2 -2.7 1.2 9.5 -0.1 11.5 0.2 14.6 2.2 21 1.3 4.1 3.4 9.2 4.7 11.4 l2.3 3.8 1.8 -5.8 c2.1 -6.9 2.2 -11.5 0.5 -24.4 -0.9 -6.6 -0.9 -11.8 -0.3 -17 l0.9 -7.5 0.3 12 c0.1 6.6 0.5 14.3 0.9 17 0.7 4.9 0.8 4.9 1.7 2 1.4 -4.7 1.1 -29.2 -0.5 -35.5 -0.8 -3 -2.6 -8 -4.1 -11 -11.4 -23 -12.4 -62.3 -2.9 -110.5 2.5 -12.5 8.9 -31.6 13.9 -41.5 5 -9.7 5.1 -7.8 0.1 4.1 -6.9 16.8 -11.2 33 -14.5 55.9 -2.5 17.2 -3.8 38.7 -3.1 51.5 0.7 12.8 3 25.5 4.6 25.5 0.6 0 0.8 -0.8 0.5 -1.7 -0.8 -3 -1.9 -25.8 -1.1 -25.2 0.3 0.4 1.4 4.7 2.4 9.6 4 19.5 13 35.7 25.3 45.4 6 4.7 7.7 5 4.7 0.8 -3.3 -4.7 -8.7 -18.1 -11.4 -28.8 -1.4 -5.3 -3.6 -13.6 -4.9 -18.6 -3.1 -11.8 -6 -46.5 -3.8 -45.1 0.5 0.3 1.2 6.1 1.5 12.8 1.6 31.3 9 51.8 23.9 66.5 3.5 3.4 8.5 7.3 11.1 8.7 l4.8 2.5 -3 -3.4 c-6.9 -7.9 -15.7 -25.3 -19.6 -39 -7.9 -27.3 -7.1 -67.3 2 -102.6 11.3 -43.4 40.5 -83.8 71 -98 7.1 -3.4 13.4 -4.1 17.4 -2 2.6 1.4 2.9 3.7 0.4 2.5 -4.1 -1.8 -9.1 -1.5 -14.4 0.7 -7.7 3.2 -17.5 9.7 -23.9 15.8 l-5.5 5.2 5.2 -3.8 c7.7 -5.7 15.6 -10.2 22.1 -12.9 6.8 -2.7 14.2 -4.1 14.2 -2.7 0 0.6 -1.9 1.3 -4.2 1.7 -10.9 1.8 -32.2 14.9 -45.1 27.9 -19.1 19.2 -33.4 50.8 -39.8 88.7 -1.9 10.9 -3.9 45 -2.6 45 1.6 0 4.9 -6.5 5.2 -10.3 0.2 -2.3 0.6 -8 1 -12.7 1.3 -17.1 4.1 -29.5 11.2 -49.5 3.3 -9.4 9 -21.1 9.9 -20.2 0.2 0.2 -0.9 3.3 -2.5 6.8 -9.3 20.6 -17.1 52.9 -17.1 71 0 6 0.1 6.2 1.9 4.5 1 -0.9 2.4 -4.4 3.1 -7.9 1.9 -10 6.9 -27.7 8.6 -30.5 0.8 -1.5 1.3 -2 1 -1.1 -1.3 4.5 -6.6 26.9 -7.2 30.7 -0.3 2.3 -0.4 4.2 0 4.2 0.3 0 2.8 -1.6 5.5 -3.5 5.3 -3.8 19 -10.5 21.5 -10.5 0.9 0 1.6 -0.6 1.6 -1.3 0 -0.8 0.9 -4 1.9 -7.1 l1.9 -5.8 -3.2 0.6 c-14.5 2.6 -19.9 1 -6.4 -1.9 5.4 -1.2 8.9 -2.5 10.4 -4 1.3 -1.3 2.5 -2.1 2.8 -1.8 1 1 16.9 -11.2 23.1 -17.9 10.7 -11.3 18.8 -24.9 26.2 -44.3 3.8 -9.7 4.9 -11.8 3.8 -7 -2.9 12.3 -10.2 28.7 -17.6 39.6 -5.8 8.6 -17.2 20.3 -24.9 25.7 -8.3 5.8 -9.1 6.6 -5.8 5.3 19.3 -7.3 38.5 -26.4 49 -48.7 5.5 -11.8 7.9 -21.8 8.1 -34.6 0.1 -6 0.5 -10.8 0.8 -10.8 1.3 0 1.9 12.9 0.9 20.7 -2.5 20.1 -11.8 38.7 -27.1 54.4 -10.3 10.6 -25.5 20.4 -34.6 22.3 -3.4 0.8 -3.5 0.9 -5.4 9.9 -1.2 5.7 -0.8 8 1.2 6 1.1 -1.1 3.7 -0.5 9.9 2 2.5 1 2.5 1 -1 1.8 -1.9 0.4 -5.5 1.1 -8 1.6 -4.3 0.8 -4.5 1 -6.6 6.8 -3 8.4 -7.6 17.3 -12 23.1 -5.9 7.8 -6 8 -3.5 5.9 4.3 -3.7 16.9 -23.2 20 -31.1 l1.1 -2.9 -0.6 3 c-0.8 4.3 -4.6 12.3 -9 19.1 -2.2 3.3 -4.3 6.5 -4.8 7.3 -0.9 1.5 -0.5 1.4 8.5 -1 11.4 -2.9 31.3 -31.7 37.9 -54.6 1.3 -4.6 2.7 -8.3 3 -8.3 1.4 0 -2.2 18.5 -6.2 32.5 -2.7 9.5 -6.3 17.8 -10.4 24.3 -4.9 7.5 -2 6 4.4 -2.4 9.8 -13 20.6 -39.6 24.2 -60.2 0.8 -4 1.7 -7.5 2.2 -7.8 0.9 -0.6 0.5 2 -2.4 16.1 -4.7 23 -15.4 46.2 -26.6 57.8 -5.6 5.7 -4.2 5.9 5.8 1.1 16.6 -7.9 28.9 -23 36.6 -44.7 2.5 -6.9 4.4 -10.4 4.4 -8 0 1.3 -5.9 19.2 -9.4 28.6 -3.4 8.9 -5.9 13.7 -9.3 17.8 -2.8 3.3 -2.8 3.3 -0.2 1.4 14.4 -11.2 27.3 -39.6 30.4 -67.5 3 -25.8 3.4 -26.5 2.9 -5.5 -0.3 11 -1 23 -1.6 26.8 -0.6 3.7 -0.9 6.9 -0.6 7.2 0.2 0.3 2.3 -0.2 4.5 -1.1 4 -1.6 4.2 -1.9 6.2 -9.3 5.7 -21.9 5.4 -57.9 -0.8 -80 -1.1 -4.1 -1.9 -7.6 -1.7 -7.9 1.5 -1.5 7.2 17.9 8.2 27.9 0.4 4.1 2 11.2 3.6 15.9 6.1 17.5 26.3 53.1 31.8 56 4 2.1 3.9 0.7 -0.6 -7.3 -8.4 -15 -13.6 -26.7 -17.5 -39.1 -2.6 -8.3 -0.9 -5.8 3.5 5.4 4.1 10.1 15.7 33.2 20.2 39.9 1.7 2.7 3.8 4.4 6.3 5.2 2 0.6 5.6 2.2 8 3.5 2.4 1.3 4.6 2.4 4.8 2.4 1.9 0 -6.1 -26.9 -13.7 -45.7 -6 -15 -11.7 -25.7 -21.1 -40.4 -7.1 -10.8 -8.7 -14.2 -4.5 -9.2 13.1 15.7 28.1 45.9 35.7 72 1.8 6.2 3.5 11.1 3.7 10.8 1.3 -1.2 -8.9 -36.8 -15.4 -53.9 -1.9 -4.9 -3.3 -9.1 -3.1 -9.3 0.8 -0.7 8.6 17.7 12 28.2 8.5 26.6 12.4 47.9 13.4 74.3 0.3 9.5 1 16.9 1.5 16.4 0.4 -0.4 1.1 -12.2 1.5 -26.2 0.7 -21.8 0.9 -24.1 1.4 -16 0.7 9 0.6 14.3 -0.6 34.2 -0.4 5.7 -0.2 8.9 0.5 9.3 0.8 0.5 0.7 1.2 -0.3 2.3 -0.8 1 -1.8 5 -2.2 9.2 -1 10.8 -3.3 23 -4.5 24.5 -0.6 0.7 -2.3 5 -3.9 9.6 -1.6 4.6 -4.5 12.1 -6.5 16.6 -5.9 13.3 -8.8 27.6 -7.6 38.3 0.5 5 0.6 4.5 1.2 -5 0.4 -5.8 1.3 -12.6 2.1 -15.2 1.8 -5.7 10 -24.8 10.5 -24.3 0.2 0.1 -0.1 2.9 -0.7 6.1 -0.6 3.2 -1.1 11.6 -1.1 18.7 0 16.1 1.7 22.4 10.4 39.2 9 17 11.1 23.9 11.1 35 -0.1 7.1 -0.6 10.1 -2.4 14.1 -2.6 6 -7.1 10.7 -12.3 12.9 -2.1 0.8 -3.8 1.8 -3.8 2.1 0 1.1 7.4 -0.5 11.5 -2.5z m-9.7 -1.7 c8.5 -3.5 13.3 -11.1 14 -22.2 0.4 -6.6 0.2 -7.5 -1.8 -9.7 -1.3 -1.3 -3.9 -3 -5.9 -3.6 -2 -0.7 -3.1 -1.4 -2.4 -1.6 0.6 -0.2 2.8 0.3 4.9 1.2 4.4 1.8 4.9 1.5 3.7 -2.2 -0.8 -2.3 -1.9 -3 -5.9 -4.1 -7.6 -1.9 -9.8 -1.4 -10.2 2.7 -0.4 4.1 1.7 10 5.9 16.7 l3.1 4.8 2.4 -4.7 c1.4 -2.6 2.9 -4.7 3.4 -4.7 3.5 0 -3.1 11.2 -13.8 23.9 -4.7 5.5 -4.1 6.4 2.6 3.5z m39.6 -2.3 c1.6 -1.7 1.6 -2.2 0.3 -4.8 -0.8 -1.5 -2.1 -4.8 -2.8 -7.3 l-1.3 -4.5 -0.6 5 c-0.7 7.1 0 13.5 1.4 13.5 0.7 0 2.1 -0.9 3 -1.9z m-261.4 -5.1 c-1.1 -2.2 -2.3 -6 -2.6 -8.5 -0.6 -4.3 -4.4 -9.8 -4.4 -6.3 0 3.3 3.3 12.5 5.6 15.6 3.4 4.3 3.9 4 1.4 -0.8z m-115.1 0.5 c11.9 -2.1 19.6 -4.2 26.1 -7.1 l5.6 -2.5 1.3 -6.2 c0.7 -3.4 2.8 -11 4.7 -16.8 3.7 -11.6 4.1 -15.4 1.8 -18.4 -1.6 -2.1 -1.9 -2 -4.6 3 -0.9 1.6 -0.8 1.8 0.3 0.8 1.7 -1.7 2.9 -1.6 2.9 0 0 2 -7.4 5.4 -16 7.4 -10.7 2.4 -32.4 2.4 -40.5 -0.1 -7.1 -2.1 -13.2 -5.3 -14 -7.4 -0.9 -2.3 0.3 -2.7 2.5 -0.7 2.4 2.2 2.6 1.3 0.4 -2 -1.9 -3 -2.8 -3.1 -5.3 -0.6 -1.6 1.6 -1.8 3.1 -1.3 14.3 0.4 10.7 0.2 13.6 -1.6 19.4 -3.6 12.4 -3.6 12.1 -0.2 13.9 3.5 1.8 3 2.6 6.1 -9 1.3 -4.7 2.5 -12.7 2.8 -19.5 l0.7 -11.5 0.8 7 c1 7.9 -0.4 19.3 -3.4 27.9 l-1.9 5.5 3.2 2 c4 2.6 17 2.8 29.6 0.6z m167.8 -7.2 c1.6 -1.6 4 -5.5 5.3 -8.8 2 -5.1 2.4 -7.8 2.4 -17.5 0 -10.6 -0.2 -12.2 -3.3 -20.5 -1.8 -4.9 -3.5 -9.9 -3.8 -11 -1.2 -4.9 2.7 2.1 5.6 10.1 6.1 16.7 6.3 29.2 0.6 40.5 -1.4 2.7 -2.1 4.9 -1.6 4.9 1.7 0 4.1 -4.9 6.2 -12.7 1.8 -6.6 2.1 -9.6 1.7 -19.3 -0.4 -8.7 -0.3 -10.9 0.5 -9 0.6 1.4 1.1 8.1 1.2 15 0 12.2 -0.1 12.7 -3.2 18.8 -2.8 5.3 -3 6.2 -1.5 6.2 1.1 -0.1 2.6 -2 4.1 -5.3 1.4 -2.8 4.3 -6.9 6.6 -9.2 l4.1 -4 -0.3 -7 c-0.3 -6.7 -0.2 -6.9 1.2 -4 0.8 1.7 1.4 4.5 1.5 6.2 l0 3.3 4.8 -0.7 c2.6 -0.3 4.8 -0.7 5 -0.8 0.2 -0.2 -0.9 -3.1 -2.3 -6.5 -1.4 -3.4 -2.4 -6.4 -2.2 -6.7 0.3 -0.2 2 2.4 3.9 5.9 2.4 4.3 4.2 6.4 5.6 6.6 2.1 0.3 2.1 0.2 0.7 -3.9 -2.1 -6 -1.8 -6.1 1.3 -0.4 2.4 4.5 3.1 5.1 6.9 5.6 2.3 0.3 4.8 1.1 5.6 1.7 1.2 1.1 2.1 0.9 4.8 -0.7 l3.3 -2 -4.9 -2.2 c-28.1 -12 -44.2 -21.9 -53.3 -32.5 -2.2 -2.6 -5.9 -8.4 -8.3 -13 -3.7 -7.4 -4.9 -8.8 -9.3 -11.3 -2.8 -1.6 -6.4 -4.2 -8.1 -5.8 -2.9 -2.9 -6.6 -5.3 -8.1 -5.3 -0.4 0 -0.4 6.7 -0.1 14.8 0.5 11.8 1.1 16.4 3.1 22.7 3.4 10.8 10.2 21.2 12.4 19.1 1.6 -1.6 0.4 -24 -1.6 -31.6 -3.7 -13.8 -3.5 -12.7 -1.9 -10.7 0.8 1 2.6 5.5 3.9 10 1.9 6.7 2.3 10.7 2.4 21.7 l0.1 13.5 5.4 0.5 5.4 0.6 -3 1.3 c-1.6 0.7 -4.6 1.1 -6.5 0.8 l-3.6 -0.5 -2.6 7.6 -2.6 7.7 4.3 5.7 4.3 5.7 0.6 -4.4 c0.4 -2.4 0.5 -7.9 0.2 -12.2 -0.4 -5.2 -0.3 -6.9 0.3 -5.1 1.4 4.2 2.1 15.9 1.3 20.3 -0.8 3.9 0.4 10.5 1.9 10.5 0.4 0 2 -1.2 3.6 -2.7z m168.3 -6.8 c-1.7 -2.5 -3.3 -4.5 -3.5 -4.5 -1.2 0 2 6.2 3.8 7.5 3.1 2.2 3.1 1.9 -0.3 -3z m105.2 -4.4 c1.2 -2.5 2.3 -7 2.5 -10 l0.4 -5.6 -1.5 3.3 c-0.9 1.8 -3.5 5.9 -6 9.1 -4.2 5.4 -4.4 6 -3 7.9 1.3 1.8 1.8 2 3.5 0.9 1.1 -0.6 2.9 -3.2 4.1 -5.6z m-111.3 -0.6 c-1.3 -4.7 -0.6 -11.2 2.1 -19.1 2.3 -6.5 2.4 -7.2 1 -5.8 -1.9 1.9 -5 12.9 -5 17.9 0 4.7 1.7 12.1 2.6 11.2 0.2 -0.2 -0.1 -2.1 -0.7 -4.2z m80.1 -6.2 c0 -2.6 -0.1 -2.6 -1.4 -0.8 -1.4 2 -1.2 3.5 0.5 3.5 0.5 0 0.9 -1.2 0.9 -2.7z m-45.2 -4.5 c-2.9 -1.8 -3.3 -1.1 -1.7 2.9 l1.1 2.8 0.9 -2.4 c0.7 -1.7 0.6 -2.7 -0.3 -3.3z m-213.1 -4.3 l2.1 -6.5 -3.6 -1.9 c-4.8 -2.5 -9.2 -7.2 -13.6 -14.5 -3.3 -5.5 -3.6 -5.8 -3.6 -3 0 4.6 2.8 14.3 5.7 19.6 2.7 5 8.9 12.8 10.2 12.8 0.4 0 1.6 -2.9 2.8 -6.5z m112.9 0.6 c14.4 -7 34.5 -21.3 47.2 -33.5 5.2 -5 5.2 -5.1 5.2 -11.3 0 -9.3 2.5 -19.2 8 -32.3 2.7 -6.4 5.6 -14.3 6.5 -17.6 3.5 -13.6 6.7 -40.4 4.8 -40.4 -0.5 0 -3 2.9 -5.4 6.5 -2.4 3.6 -4.7 6.5 -5 6.5 -0.4 0 0.2 -2.5 1.3 -5.4 1.3 -3.6 1.8 -6.5 1.4 -8.3 -0.7 -2.6 -10.8 -13.3 -12.6 -13.3 -0.4 0 0.2 1.9 1.4 4.3 3.1 6.2 3 18.5 -0.3 24.7 -5.4 10.2 -5.1 10 -17.4 10 -8.9 0 -10.8 -0.3 -10.4 -1.4 0.3 -0.8 -0.5 -2.4 -1.8 -3.6 -4.6 -4.3 -6.9 -10.8 -6.9 -19.5 -0.1 -6.9 0.3 -8.7 2.6 -12.7 1.5 -2.7 2.3 -4.8 1.9 -4.8 -1.1 0 -8.3 5.3 -10 7.3 -0.7 0.9 -2 1.7 -2.9 1.7 -0.9 0 -2.6 1 -3.9 2.2 -2.9 2.7 -3 1 -0.2 -2.6 1.1 -1.4 1.6 -2.6 1 -2.6 -0.5 0 -1.3 0.5 -1.6 1 -0.3 0.6 -1.1 1 -1.8 1 -0.6 0 0.9 -2.1 3.3 -4.6 4.5 -4.6 4.5 -4.6 1.2 -2.9 -4.6 2.3 -5 1.3 -0.8 -1.9 11.2 -8.5 26.9 -11.8 39 -8.2 3.3 1 5.6 1.2 7.3 0.5 1.3 -0.5 3.2 -0.9 4.1 -0.9 1.4 0 1.3 0.4 -0.6 1.8 l-2.2 1.7 5 2.7 c4.1 2.2 5.5 2.5 8.2 1.8 4.1 -1.2 4.9 -0.4 1.8 2 l-2.4 1.8 4 4.8 3.9 4.9 0.3 -9.5 0.3 -9.5 -3.3 -2.5 c-5.5 -4.2 -16.6 -15 -22.5 -22.1 l-5.6 -6.7 -8.1 -1.1 c-9.2 -1.3 -16.4 -1.7 -25.1 -1.3 l-6 0.2 -2.9 7.5 c-5.3 13.7 -15.2 28 -24.9 35.6 -6.5 5.2 -7.9 4.9 -2.9 -0.5 6.1 -6.6 10.4 -16 14.2 -30.8 3.4 -13.2 2.6 -13 -4.7 1.3 -7.8 15.1 -16.5 25.4 -25.4 29.9 -9.3 4.8 -9.7 4.5 -3.4 -2.2 8.2 -8.5 9.2 -9.8 11 -14.3 l1.7 -3.9 -5.3 5.8 c-9.5 10.4 -21.5 17.5 -32 19.1 -2.6 0.4 -7.2 0 -11.4 -0.9 -4.1 -0.9 -7.6 -1.1 -8.5 -0.6 -0.9 0.5 -3 0.8 -4.7 0.8 -1.7 -0.1 -5 0.8 -7.4 2 -2.4 1.2 -5.7 2.6 -7.2 3.1 -2.9 1.1 -2.8 3.1 0.1 3.1 0.9 0 3.1 -0.8 4.7 -1.8 10.7 -6.5 27.5 -5 37.3 3.3 1.8 1.5 3.1 3.3 2.9 3.9 -0.3 0.6 0.5 2.1 1.6 3.3 2.1 2.3 1.6 4.6 -0.5 2.5 -2.4 -2.4 -2.6 -1.1 -0.6 4.1 2.4 6.1 2.1 17.3 -0.4 22.2 -1.6 2.9 -2.4 3.3 -17.5 7.2 -1.3 0.3 -2.3 0.1 -2.3 -0.5 0 -0.6 -2.2 -3.3 -4.9 -6 -3.8 -3.8 -5.4 -6.4 -6.6 -10.7 -2.3 -7.8 -1.7 -17.4 1.3 -21.5 1.5 -2 1.8 -3 0.9 -3 -2.9 0 -9.7 5.6 -13.1 10.8 -4.7 7.1 -4.8 11.9 -0.6 18.5 1.6 2.6 2.6 4.7 2.1 4.7 -0.5 0 -3.3 -1.8 -6.2 -4 -5.6 -4.2 -6.5 -4.5 -8.8 -3.1 -1.2 0.8 -1 2 1.4 7.7 1.6 3.7 4.6 9.3 6.8 12.6 3.8 5.8 11.9 12.4 13.6 11.3 0.5 -0.3 1.2 -0.1 1.6 0.5 0.3 0.5 1.5 1 2.5 1 1.2 0 1.7 0.5 1.4 1.3 -0.5 1.4 -7.8 0.9 -11.6 -0.7 -1.8 -0.8 -1 1.7 5.5 16.9 10.6 24.8 23.8 36 61.7 52.1 26.2 11.1 26.9 11.2 38.6 5.5z m103.8 0.4 c0.3 -0.8 -0.2 -3.1 -1.1 -5.2 -2.3 -5.2 -2.2 -16.3 0.2 -23.6 1 -3.3 3.6 -8.7 5.7 -12 9.2 -14.7 11.2 -21.4 13.1 -44.2 1.3 -15.3 1.4 -15.7 2.2 -10 0.7 5.3 -0.3 20.6 -2 31 -1 6 3.6 -5.7 5.6 -14.3 1.6 -6.7 2 -11.3 1.8 -22.9 l-0.2 -14.6 -2.3 5.1 c-2.4 5.5 -5.1 9.5 -12.4 18.1 -3.9 4.8 -4.8 6.8 -7.1 16 -3.5 13.8 -7.8 22.9 -18.3 39.1 -2.4 3.6 -4.6 7.1 -5 7.8 -0.8 1.4 2.3 11.2 3.6 11.2 0.4 0 0.8 -1 0.8 -2.2 0.1 -4.1 3.6 -10.1 11 -18.8 10.8 -12.7 13.3 -18.6 15 -36.5 l0.8 -9 -0.1 12 c-0.2 11.7 -0.3 12.2 -4 19.7 -2.1 4.2 -6.8 11.2 -10.4 15.5 -7.1 8.4 -11.3 16.1 -11.3 20.7 0 3.8 6.6 16.1 9.3 17.4 3.1 1.5 4.4 1.4 5.1 -0.3z m-22.4 -6.5 c0 -2.2 -8.9 -4.5 -9.7 -2.4 -0.3 0.8 3.3 2.1 9 3.3 0.4 0 0.7 -0.3 0.7 -0.9z m-335.5 -1.9 c4.4 -0.6 10.3 -1.5 13.1 -2.1 5.1 -1.1 5.2 -1.2 12.2 -11.8 10.7 -16.2 13.5 -23.7 15.7 -42.6 1.6 -13.1 6.3 -28.5 12.2 -39.7 4.2 -8 4.1 -10.3 -0.5 -10.7 -3.9 -0.4 -8.7 2.3 -13.2 7.5 -3.7 4.2 -5.2 7.3 -7.9 16.9 -2.4 8.2 -5.3 13 -10 16.1 -4 2.7 -5.7 2.1 -2.1 -0.7 1.4 -1.1 1.9 -2 1.2 -2 -2 0 -13.8 -25.3 -16.6 -35.5 -1.4 -4.9 -4.3 -16 -6.6 -24.5 -5.1 -19 -9.3 -29.4 -13.7 -33.8 -6.7 -6.9 -7.6 -2.7 -3.2 16.4 5 22 7.8 36.4 8.5 43.4 0.4 3.6 1.2 6.8 1.8 7.2 0.8 0.5 0.7 0.8 -0.1 0.8 -0.7 0 -1.4 0 -1.5 -0.1 -0.2 0 -1.4 0.4 -2.8 0.9 -5.4 2 -8.1 -1.1 -24.5 -28.6 -14.2 -23.7 -26 -37.2 -32.6 -37.2 -4.9 0 -3.6 3.8 7.5 22.8 2.7 4.5 4.6 8.5 4.3 8.8 -0.3 0.3 -3.4 -3.7 -6.8 -9 -5.8 -9.2 -9.8 -12.9 -12.6 -11.9 -3.8 1.4 0.1 13.4 12.1 37.3 6.9 13.6 15.7 34.3 17.1 40.1 0.4 1.7 0.1 3 -0.9 3.9 -2.4 1.9 -6.6 -1.3 -23.7 -17.7 -8.1 -7.7 -16.2 -14.7 -18.2 -15.6 -4.3 -2.1 -8.7 -2.2 -8.7 -0.4 0 2.4 5.1 9.2 14.6 19.4 11.4 12.3 23.2 25.9 26.1 29.9 1.2 1.7 7.1 12.5 13.1 24 6 11.5 11.5 21.9 12.3 23.2 1.7 2.7 5.7 4.1 14.7 5.2 9.6 1.1 10.8 1.1 19.7 0.1z m319.8 -2 c0.3 -1.1 -0.2 -2.6 -1.2 -3.5 -1.6 -1.4 -1.7 -1.3 -1.3 1.9 0.5 3.8 1.7 4.6 2.5 1.6z m12.1 -3.6 c-1.7 -2.6 -1.8 -2.6 -3.1 -0.9 -1.4 2 -0.8 3 2.2 3.6 2.8 0.6 2.9 0.3 0.9 -2.7z m-5.3 -2.2 c2.2 -4.5 2.2 -4.6 1 -3.9 -1.5 1 -4.4 6.6 -3.3 6.6 0.5 0 1.5 -1.2 2.3 -2.7z m-2.1 -2.8 l2.1 -3.4 -3.5 -8.9 c-2 -4.9 -3.6 -9.9 -3.6 -11 0 -3.2 -1.6 -3.5 -3.5 -0.6 -1.4 2.1 -1.6 3.9 -1 9.8 0.7 7 4.5 17.6 6.4 17.6 0.5 0 1.9 -1.6 3.1 -3.5z m85.5 -13.9 c2.7 -4.5 3 -5.7 3 -13.5 0 -6.9 -0.4 -9.5 -2.2 -13.1 l-2.3 -4.5 0.6 8 c0.6 9 -0.8 19 -3.6 24.8 -1.7 3.4 -1.7 3.8 -0.2 3.5 0.9 -0.2 3 -2.5 4.7 -5.2z m-71.6 -4.3 c2.2 -8.7 3.1 -16.4 3.1 -27.9 0 -9.7 -0.3 -12.3 -1.4 -12.7 -1.1 -0.4 -2.1 1.2 -3.8 6.1 -1.9 5.4 -2.3 8.8 -2.3 17.7 0 17.5 2.1 25.6 4.4 16.8z m7.1 -9.5 c2.5 -5.5 8 -26.8 8 -31 0 -1.2 -0.8 -1.3 -4.9 -0.4 l-4.9 1 -0.5 16 c-0.2 8.9 -0.8 17.1 -1.2 18.4 -1.5 4.5 0.7 2 3.5 -4z m-27.1 -12.6 l-0.1 -8.7 -1.9 5.9 c-1.1 3.3 -2.2 8.5 -2.5 11.5 l-0.5 5.6 2.5 -2.8 c2.4 -2.6 2.6 -3.5 2.5 -11.5z m40.5 -15.7 c1.4 -4.9 2.4 -9 2.2 -9.2 -0.1 -0.2 -1.4 0.6 -2.8 1.7 -2.1 1.6 -2.7 3.3 -3.6 10.2 -0.7 4.6 -1.4 9.4 -1.7 10.8 -1.4 6 3.5 -5.1 5.9 -13.5z m-211.4 11 c-3.4 -8.9 -7.3 -14.5 -13 -18.6 l-4 -2.9 0 2.5 c0 4 3.7 10.4 9.5 16.2 5.9 5.8 9.1 7.1 7.5 2.8z m291.5 -19.2 c-0.8 -4.3 -2.2 -9.8 -3 -12.3 l-1.4 -4.5 0 4.3 c-0.1 4.3 5 23.4 5.7 21.3 0.2 -0.5 -0.4 -4.5 -1.3 -8.8z m-311.2 1.5 c-0.5 -5.5 -1.1 -6.8 -4.2 -10.3 -2 -2.2 -4.7 -5.7 -6 -7.7 -1.2 -2.1 -2.4 -3.8 -2.7 -3.8 -0.2 0 0.6 2.4 1.7 5.3 1.2 2.8 2.7 6.9 3.5 9 1.7 4.7 6.7 13.7 7.6 13.7 0.3 0 0.4 -2.8 0.1 -6.2z m303.7 -7.5 c0 -20.1 -1.6 -30.7 -7.7 -51.5 -3.1 -10.6 -6.6 -22.8 -7.7 -27 -2.4 -8.8 -3.6 -10.6 -3.6 -5.7 0 2 -0.5 6.1 -1 9.1 -0.9 4.8 -0.8 6.9 0.9 13.6 4.9 19 5.4 22.6 6 45.1 l0.6 22.5 5.5 2.2 c3 1.3 5.8 2.3 6.3 2.4 0.4 0 0.7 -4.8 0.7 -10.7z m-78.1 5.7 c6.1 -3.1 19.3 -18 23.5 -26.4 3.2 -6.5 3.6 -8.1 3.6 -15.3 0 -15.4 -6.1 -27.3 -14 -27.3 -3.4 0 -13.6 8.9 -16.3 14.2 -0.9 1.8 -3.2 12.3 -5.2 23.3 -1.9 11 -4.2 22.7 -4.9 26 -0.8 3.3 -1.2 6.3 -1 6.7 1 1.6 10.5 0.8 14.3 -1.2z m-285.4 -6.8 c-0.6 -0.4 -2.6 -2.1 -4.5 -3.7 l-3.5 -3 3.4 3.8 c1.9 2 3.9 3.7 4.5 3.7 0.6 0 0.6 -0.3 0.1 -0.8z m5.1 -12.4 c1.7 -5.6 1.7 -6.1 -0.4 -19.5 -1.1 -7.6 -2.3 -17.4 -2.6 -21.8 -0.5 -7.5 0.7 -28.2 2 -34.3 2 -9.5 -8.8 20.2 -12 32.9 -0.9 3.7 -2 11 -2.5 16.4 -0.8 8.3 -0.7 10.1 0.6 12.2 1 1.6 1.4 3.5 1 5.9 -0.7 4.3 1.9 10.1 6.6 15.2 l3.1 3.2 1.2 -2.2 c0.6 -1.3 2 -4.9 3 -8z m399 2.7 c2.2 -4.7 2.5 -6.4 1.9 -10.7 -0.4 -2.9 -1.6 -7.2 -2.6 -9.5 -1.8 -4.2 -6.9 -11.7 -7.5 -11.1 -0.1 0.2 0.6 2.8 1.6 5.8 2.1 6.1 2.7 19.1 1 23.6 -0.8 2 -0.7 3.2 0.5 5 0.8 1.3 1.8 2.4 2.1 2.4 0.3 0 1.7 -2.5 3 -5.5z m-293.1 1.4 c6.3 -1.2 7.3 -2.3 8.5 -9.1 0.8 -5.5 -0.2 -12.9 -1.8 -12.7 -0.4 0.1 -1.7 -0.2 -2.9 -0.6 -2.6 -0.8 -2.1 -2.5 0.8 -2.5 2.8 0 2.3 -1.6 -1.9 -5.8 -4.7 -4.7 -11.3 -6.9 -15.7 -5.2 l-3 1.2 2.3 1.8 c1.6 1.3 2.2 2.9 2.2 5.9 0 4.4 -1.8 6.1 -6.4 6.1 -2.2 0 -2.6 0.5 -2.6 2.9 0 6.1 10.5 20.9 14 19.6 0.8 -0.4 3.7 -1.1 6.5 -1.6z m-86.4 -5 c-0.6 -1.6 -1 -1.8 -1 -0.7 -0.1 2.2 1.2 5.5 1.6 4.2 0.2 -0.6 -0.1 -2.2 -0.6 -3.5z m372 -2.6 c0 -1.6 0.2 -3.7 0.5 -4.8 0.6 -3 -1.6 -13.3 -4.3 -20.1 -2 -5.2 -3.3 -6.7 -8.6 -10.6 -3.4 -2.6 -9.4 -7.3 -13.4 -10.7 l-7.2 -6 3.9 8.5 c2.2 4.6 5.6 11.2 7.5 14.7 6.4 10.9 20 31.7 20.8 31.7 0.4 0 0.7 -1.2 0.8 -2.7z m-134.6 -16.7 c1.7 -12.7 1.8 -14.6 0.7 -14.6 -0.5 0 -1.4 5.3 -2.1 11.8 -0.7 6.4 -1.4 13.5 -1.7 15.7 -0.9 8.8 1.6 -1.9 3.1 -12.9z m-196.5 4.9 c0 -1.2 0.5 -2.6 1.2 -3.3 1 -1 0.7 -1.6 -1 -2.8 -2.8 -2 -2.8 -3.4 0.1 -3.4 1.3 0 3.5 -1.6 5.5 -4 3 -3.6 3.1 -4.1 1.5 -4.7 -1 -0.3 -2.5 -1.2 -3.4 -1.9 -1.3 -1.2 -2.1 -0.8 -5.4 2.6 l-3.8 3.9 0.7 7.2 c0.3 4 0.9 8.4 1.3 9.7 0.6 2.4 0.7 2.4 1.9 0.7 0.8 -1.1 1.4 -2.8 1.4 -4z m164.3 4.4 c3.1 -1.7 5.4 -4.9 7.2 -9.8 1.9 -5.7 1.9 -10.1 -0.1 -12.9 -1.8 -2.6 -3.6 -2.9 -2.7 -0.4 0.6 1.5 0.5 1.5 -1 0.3 -1.1 -0.9 -1.7 -1 -1.7 -0.2 0 0.6 -0.4 1.1 -1 1.1 -0.5 0 -1 -0.6 -1 -1.3 0 -1.5 4.1 -3.7 6.6 -3.7 2.3 0 0.8 -3.8 -2.9 -7.8 -5.1 -5.3 -14.2 -6.7 -20.7 -3.2 -3.3 1.8 -3.4 1.9 -0.9 2 3.3 0 4.9 1.7 4.9 5.2 0 4.1 -3.4 7.1 -7.6 6.6 -3.7 -0.4 -4.4 0.4 -4.4 5.5 0 4 4.3 13.3 7.8 17 2.3 2.4 3.3 2.7 9 2.7 3.5 0 7.3 -0.5 8.5 -1.1z m-171.2 -6.9 c-1.1 -5.5 -3 -27.6 -3.1 -35.9 l0 -3.4 -2 2.6 c-2.5 3.1 -2.6 7.9 -0.4 20.2 1.7 9.9 5.4 23.8 6.2 23 0.3 -0.2 -0.1 -3.2 -0.7 -6.5z m39.3 -4.3 c0.8 -2.1 0.6 -3.1 -0.7 -4.4 -3.1 -3.1 -7.1 1.7 -5.3 6.3 1 2.5 4.9 1.2 6 -1.9z m298.5 -11.9 c-3.3 -4.7 -7 -9.1 -17.2 -19.8 -9.9 -10.4 -21.8 -24.3 -25.6 -29.6 -1.3 -1.9 -2.6 -3.2 -2.8 -3 -0.9 0.8 6.6 16.7 10 21.4 4.6 6.2 14.4 15.5 23.7 22.4 4.1 3 8.8 6.9 10.4 8.7 3.8 4 4.3 3.9 1.5 -0.1z m-332 -3 c5.2 -5.4 15.9 -21.3 20.5 -30.6 2 -3.9 3.6 -7.3 3.6 -7.6 0 -1 -13.4 4.4 -18.7 7.6 -5.6 3.4 -5.6 3.4 -7.3 15.3 -0.5 3.9 -1.4 9.4 -2 12.4 -1.6 8.7 -1.7 8.7 3.9 2.9z m147.5 -0.4 c2.6 -1 3.8 -4.1 2.6 -6.4 -1.4 -2.6 -3.2 -2.5 -5.9 0.4 -1.9 2 -2.1 2.8 -1.2 4.5 1.2 2.2 2 2.5 4.5 1.5z m-137.2 -4.3 c4.6 -5.4 12 -18.3 15.2 -26.4 4.4 -11.1 2.4 -9.8 -3.6 2.4 -3 6.3 -8.1 14.9 -11.2 19.2 -3.1 4.3 -5.6 8 -5.6 8.3 0 1.4 2.3 -0.1 5.2 -3.5z m209.8 -0.6 c1 -1.2 1 -1.5 -0.4 -1.5 -0.9 0 -1.6 0.7 -1.6 1.5 0 0.8 0.2 1.5 0.4 1.5 0.2 0 0.9 -0.7 1.6 -1.5z m-223.1 -18.5 c0.1 -1.2 -0.2 -1.2 -1.5 0.2 -1.7 1.7 -2.9 12.2 -1.6 14.2 0.5 0.9 3 -10 3.1 -14.4z m52.8 8 c4.5 -6.8 9.6 -18.2 10.8 -24 0.6 -3.2 0.4 -3 -2.9 2.3 -5.5 9 -9.9 14.6 -16.6 21.2 -5.7 5.6 -5.9 6 -3.8 6.7 5.9 1.7 8.1 0.6 12.5 -6.2z m173.4 6 c1.8 0 0.9 -1.7 -1.5 -2.8 -2 -0.9 -2.5 -0.8 -2.9 0.8 -0.6 2.3 0.2 3.2 2.1 2.5 0.7 -0.3 1.8 -0.5 2.3 -0.5z m4.9 -4.2 c-0.1 -0.3 -1.9 -2.5 -4 -4.7 -3 -3.1 -4 -3.7 -4.4 -2.5 -1.3 3.5 -0.6 5.5 2.7 6.9 3.2 1.4 5.9 1.6 5.7 0.3z m3.5 -6.5 c-2 -2.7 -5.1 -7.8 -6.8 -11.5 -1.8 -3.7 -3.5 -6.8 -3.9 -6.8 -1.2 0 -1 8.5 0.3 11.7 1.3 3.4 4.4 7 8.4 9.4 5.1 3.2 5.8 2.2 2 -2.8z m44.2 -2 c1.3 -6.4 0.7 -36.2 -0.9 -42.3 l-1.5 -5.5 -0.6 3.5 c-3.1 18.9 -4.2 39.9 -2.2 45.5 0.6 1.8 0.4 1.7 -1.4 -0.3 -3.3 -3.7 -3.5 -8.2 -1.3 -27 3.3 -27.4 3.6 -33 2.2 -34.7 -2.1 -2.5 -3 -1.8 -6.2 5.2 -4.1 9.2 -7.8 22.7 -10.4 38.3 -2.3 13.9 -2.6 13 6.9 17.2 4.5 2 9.6 3.7 11.4 3.7 2.9 0.1 3.3 -0.2 4 -3.6z m-163.5 -10.8 c3.8 -7 7.8 -16.3 7.8 -18.1 0 -1 -0.9 -1.2 -3.2 -0.7 -1.8 0.3 -3.4 0.7 -3.6 0.8 -0.2 0.2 -1.2 3.9 -2.2 8.3 -1.1 4.5 -3.1 10.9 -4.5 14.3 -1.4 3.4 -2.5 6.5 -2.5 6.8 0.1 1.3 5.2 -5.8 8.2 -11.4z m79.6 5.4 c-2 -1.7 -7.1 -7.2 -11.3 -12.4 -7.1 -8.7 -9.1 -10.5 -11.7 -10.5 -0.5 0 1.9 3.4 5.4 7.7 6.4 7.8 19.7 19.7 20.7 18.7 0.3 -0.3 -1.1 -1.9 -3.1 -3.5z m1.7 -9.5 c-0.7 -5.1 -1.3 -5.7 -9.9 -8.9 l-6.7 -2.5 1.8 3.1 c1 1.7 4.7 6.3 8.3 10.2 5.8 6.3 6.5 6.8 6.8 4.7 0.2 -1.3 0.1 -4.2 -0.3 -6.6z m115.5 -2.3 c1.4 -2.7 1.3 -3.1 -1 -3.1 -3.8 0 -14.5 -12 -18.9 -21.2 -4.3 -8.9 -10.1 -15.9 -10.1 -12.2 0.1 7.1 9.9 26.4 17.1 33.6 3.9 3.9 5.5 4.8 8.3 4.8 2.5 0 3.8 -0.6 4.6 -1.9z m4.6 -16 c0.6 -5.7 0.6 -5.9 -3.1 -10 -5.5 -6.1 -29.9 -23.3 -31 -21.9 -0.1 0.2 0 1.9 0.3 3.8 0.4 2.9 2.1 5 10.5 12.5 11.5 10.4 18.1 18.8 19.2 24.2 l0.8 3.8 1.4 -3.3 c0.7 -1.8 1.6 -5.9 1.9 -9.1z m-8.2 5.7 c-1.7 -3.4 -9.7 -12.6 -12.2 -14.2 -2.7 -1.6 3.2 7.6 8 12.6 2.6 2.6 4.9 4.8 5.3 4.8 0.3 0 -0.2 -1.5 -1.1 -3.2z m-164.9 -6.9 c-5.6 -1.1 -14.3 -1.1 -15 0.1 -0.4 0.6 2.9 1 9.2 0.9 7.9 -0.1 9 -0.3 5.8 -1z m19.5 0.5 c0 -0.4 -1.5 -2.7 -3.4 -5.3 -6.8 -9.4 -15 -24.6 -23.3 -43.1 -1 -2.1 -1.2 -1.4 -1.2 5.1 -0.1 9.4 -2.5 27.8 -4.5 34.4 -0.9 2.8 -1.6 5 -1.6 5.1 0 0.1 4.8 0.4 10.8 0.8 5.9 0.3 13.2 1.2 16.2 2 6.8 1.7 7 1.7 7 1z m117 -23.5 c1.5 -2.7 -2.3 -10.9 -5 -10.9 -3.6 0 -4.1 2.4 -1 5.4 1.7 1.5 3.3 3.9 3.6 5.2 0.7 2.9 1 3 2.4 0.3z m-1.7 -13.6 c1.5 -2.7 -7.2 -26.7 -9.1 -24.9 -0.2 0.3 1 4.1 2.7 8.6 1.7 4.5 3.1 9.9 3.1 11.9 0 2.1 0.3 4.1 0.7 4.4 0.9 0.9 2.1 0.9 2.6 0z"/>
  <path d="M510.5 1068.8 c-0.9 -2.6 -5.3 -20.4 -5.7 -22.8 -0.2 -1.6 0.2 -2.5 1.1 -2.5 1.4 0 6.9 19.2 7.1 24.3 0 2.3 -1.8 3.1 -2.5 1z"/>
  <path d="M501.3 1034.4 c-0.8 -2.1 1.3 -4.2 2.8 -2.7 1.3 1.3 0.5 4.3 -1.1 4.3 -0.6 0 -1.3 -0.7 -1.7 -1.6z"/>
  <path d="M377 1033.4 c0 -1.1 28 -33.5 32 -36.9 l2.4 -2 -2.2 3.1 c-1.8 2.7 -14.8 17.6 -28.4 32.8 -2 2.2 -3.7 3.6 -3.8 3z"/>
  <path d="M337.7 1034.8 c-4.8 -8.3 -13.8 -27 -13.5 -28 0.4 -1 13.8 24.4 15.9 29.9 1.3 3.5 0.4 2.8 -2.4 -1.9z"/>
  <path d="M628.7 1101.5 c-1.1 -2.6 0.3 -37.7 1.4 -38.9 1.1 -1.2 1.1 31.1 0.1 36.9 -0.6 3.3 -0.9 3.6 -1.5 2z"/>
  <path d="M646.6 1099.4 c-1 -2.7 -0.7 -40.2 0.4 -40.9 0.7 -0.4 1 6.8 1 20.9 0 11.9 -0.2 21.6 -0.4 21.6 -0.2 0 -0.7 -0.7 -1 -1.6z"/>
  <path d="M608.4 1088.3 c1.2 -23.1 1.9 -29.9 2.6 -27.3 0.5 2.1 0.3 11.3 -0.9 37.3 -0.1 0.9 -0.6 1.7 -1.2 1.7 -0.8 0 -1 -3.4 -0.5 -11.7z"/>
  <path d="M660.5 1092.8 c-1.1 -7.3 -1.1 -33 0 -36.3 0.7 -2.3 1.1 2.1 1.5 17.5 0.6 20.1 -0.1 28.3 -1.5 18.8z"/>
  <path d="M720.9 989.1 c-7.1 -7.2 0.3 -19.2 9.1 -14.6 3.5 1.8 5 4.3 5 8.5 0 4 -4.7 9 -8.5 9 -1.6 0 -3.8 -1.2 -5.6 -2.9z m10.5 -2.3 c3.3 -4.6 0.5 -10.8 -4.8 -10.8 -4.8 0 -7.3 6 -4.6 11.1 1.5 2.8 7.4 2.6 9.4 -0.3z"/>
  <path d="M430.3 889.4 c-10.3 -5.1 -6.6 -22.9 4.8 -22.9 3.4 0 4.6 0.6 7.5 3.8 2.9 3.1 3.4 4.4 3.4 8.5 0 5.4 -1.7 8.5 -6 10.7 -3.6 1.9 -5.7 1.9 -9.7 -0.1z m8.9 -2.5 c1.1 -0.6 2.6 -2.6 3.4 -4.5 1.2 -2.9 1.2 -3.9 0 -6.8 -4 -9.7 -15.6 -7.5 -15.6 2.8 0.1 7.3 6.3 11.7 12.2 8.5z"/>
  <path d="M503.7 839.3 c-7.4 -31.2 -11.6 -66.2 -11.7 -94.9 0 -19.5 1 -41.7 1.9 -40.8 0.3 0.3 0.5 12.1 0.3 26.2 -0.5 35.3 3.3 72.4 10.8 105.7 3.4 15.5 3.3 14.5 2.1 14.5 -0.5 0 -2.1 -4.8 -3.4 -10.7z"/>
  <path d="M591.2 820 c5.5 -6.7 27.6 -28 29 -28 0.7 0 -5.9 7.2 -14.7 16 -15.5 15.5 -21.1 20.2 -14.3 12z"/>
  <path d="M521 803.1 c0 -4.8 12.6 -60.4 16.4 -72.1 2.6 -8.3 1.6 -1.4 -2.3 16.1 -9 39.6 -13.2 57.3 -13.6 57.8 -0.3 0.2 -0.5 -0.6 -0.5 -1.8z"/>
  <path d="M575 798.2 c0 -0.5 2.6 -3.4 5.8 -6.5 8.3 -7.9 17 -9.8 26.1 -5.7 5.7 2.6 4.9 3.4 -1.4 1.4 -5.6 -1.7 -12.8 -1.3 -17.3 1 -1.5 0.8 -5.2 3.6 -8 6.1 -2.9 2.6 -5.2 4.3 -5.2 3.7z"/>
  <path d="M562.5 782.5 c0.7 -4.8 8.8 -47.3 11.4 -60 2.9 -13.8 2.5 -4.5 -0.4 12.5 -3.6 20.4 -9.5 48.2 -10.6 50 -0.7 1 -0.8 0.3 -0.4 -2.5z"/>
  <path d="M418.2 783.3 c-10.5 -5.1 -6.7 -23.3 4.8 -23.3 6.5 0 12.8 8.6 11 15.1 -1.1 4.1 -4.2 7.6 -7.7 9 -3.3 1.2 -4.2 1.1 -8.1 -0.8z m9.5 -2.8 c4.2 -2.9 4.2 -11.6 0.1 -15.5 -5.1 -4.7 -12.8 -0.6 -12.8 6.9 0 7.7 7.1 12.5 12.7 8.6z"/>
  <path d="M544 636.7 c0 -5.8 25.2 -73.8 26.8 -72.3 0.6 0.6 -4.3 14.5 -12.3 35.1 -3.4 8.8 -7.9 21.1 -9.9 27.3 -3.6 10.6 -4.6 12.9 -4.6 9.9z"/>
  <path d="M244.6 844.7 c-6.9 -6 -5.5 -7.8 1.7 -2.1 3.1 2.5 5.5 5 5.1 5.5 -0.9 1.5 -1.7 1.1 -6.8 -3.4z"/>
  <path d="M230.5 811.3 c0.8 -5 9.2 -35.3 10 -36.1 1.3 -1.3 0.2 4.5 -4 20.8 -2.5 9.6 -5.1 17.9 -5.6 18.5 -0.8 0.7 -0.9 -0.3 -0.4 -3.2z"/>
  <path d="M243.3 727.7 c0 -17.7 0.2 -36.2 0.6 -41.2 0.7 -7.6 0.8 -5.5 1.1 13 0.3 30 0 55 -0.8 58 -0.4 1.4 -0.8 -12 -0.9 -29.8z"/>
  <path d="M264.6 751.5 c-5.4 -3.1 -9 -6.5 -6.8 -6.5 1.8 0 14.6 7.5 14.5 8.5 -0.3 1.8 -1.8 1.4 -7.7 -2z"/>
  <path d="M393.8 922.1 c-7 -3.2 -20.8 -10.7 -30.5 -16.6 -27.1 -16.3 -50.3 -30.9 -49.9 -31.3 0.7 -0.7 8.3 3.8 48.3 28.1 7.8 4.8 21.3 12.3 30 16.8 8.7 4.5 16 8.4 16.2 8.6 1.7 1.3 -3.2 -0.6 -14.1 -5.6z"/>
  <path d="M351 911.4 c-1.4 -0.2 -6.5 -0.9 -11.5 -1.5 -13.7 -1.6 -33.3 -6.3 -35.2 -8.3 -0.4 -0.5 0.1 -0.6 1.2 -0.2 3.7 1.1 25.9 5.5 36.5 7.2 5.8 0.9 11.2 2 12 2.5 1.5 0.9 1.3 0.9 -3 0.3z"/>
  <path d="M280.7 867.4 c-0.3 -0.3 4 -7.4 9.5 -15.7 12.8 -19.3 17.6 -29 25.3 -50.6 0.3 -0.8 0.8 -1.2 1 -0.9 0.8 0.7 -2.3 10.5 -6.3 19.8 -5.4 12.7 -16.3 30.9 -28.7 47.8 -0.1 0.1 -0.4 -0.1 -0.8 -0.4z"/>
  <path d="M379.5 814 c-24.9 -3.8 -63.6 -13.4 -59.8 -14.7 0.7 -0.3 3.4 0.2 6 1.1 12.7 4.1 36.5 9.2 64.1 13.6 3.9 0.7 7.2 1.4 7.2 1.6 0 0.7 -5.4 0.2 -17.5 -1.6z"/>
  <path d="M386.3 754.3 c-12.3 -24.5 -24.3 -51.3 -25.9 -57.8 -1.2 -5.3 0.3 -2.3 7.4 14.1 3.9 8.9 12.7 27.9 19.7 42.3 7 14.4 12.5 26.4 12.3 26.7 -0.3 0.3 -6.4 -11.1 -13.5 -25.3z"/>
  <path d="M364 743.3 c-9.1 -30.8 -18.1 -68 -17.9 -74 0.1 -3.3 0.7 -1 6.8 24.7 2.3 9.6 5.7 22.9 7.6 29.5 5.1 18 9.7 36.6 9.2 37.1 -0.2 0.2 -2.8 -7.6 -5.7 -17.3z"/>
  <path d="M355.5 571.3 c0.6 -0.5 4.8 -3.6 9.5 -6.8 4.7 -3.2 12.8 -9.2 18 -13.5 11.6 -9.3 13.7 -10.6 8.5 -5.1 -5.4 5.8 -23.4 19.2 -30.9 23.2 -3.4 1.7 -5.6 2.7 -5.1 2.2z"/>
  <path d="M474.5 462.2 c16.5 -8.6 25.5 -14.1 36.5 -22.6 6.7 -5.2 9 -6.5 9 -5 0 1.6 -24.7 18.5 -36 24.7 -6.4 3.5 -22.5 10.7 -23.8 10.7 -0.4 0 6.1 -3.6 14.3 -7.8z"/>
  <path d="M311.6 452.7 c-4.7 -6.2 -9.7 -20.5 -9.5 -27.2 0.1 -2.8 0.2 -2.7 1.1 1 2.1 9.2 5 17.4 8.2 23.3 1.9 3.4 3.2 6.2 3 6.2 -0.1 0 -1.4 -1.5 -2.8 -3.3z"/>
  <path d="M215.2 551.9 c-27.4 -14.1 -46.6 -25.6 -48.8 -29 -0.8 -1.4 0 -0.9 6.1 3.1 4.8 3.2 24 13.6 46.7 25.4 15.5 8 19.6 10.6 16.9 10.6 -0.6 0 -10 -4.6 -20.9 -10.1z"/>
  <path d="M94.2 546.5 c0.7 -1.2 5.4 -7.5 10.3 -14 10.4 -13.7 18.4 -25.5 27.5 -40.3 3.4 -5.7 6.5 -10.1 6.7 -9.8 1.4 1.3 -21.6 37.7 -31.2 49.4 -6.3 7.8 -15.3 17.6 -13.3 14.7z"/>
  <path d="M240.9 527.3 c-7.1 -12.6 -18.2 -28.3 -26.6 -37.8 -6.7 -7.6 -7.8 -9.2 -4.4 -6.5 9.4 7.5 24 27 31.5 41.9 4.5 8.8 4.1 10.5 -0.5 2.4z"/>
  <path d="M219.5 517.4 c-6.6 -6 -20.6 -15.9 -27.3 -19.3 -2.4 -1.2 -4.2 -2.5 -3.9 -2.7 0.8 -0.8 12.6 5.4 20.2 10.7 6.9 4.7 19.9 16.9 18 16.9 -0.6 -0.1 -3.7 -2.6 -7 -5.6z"/>
  <path d="M68.8 488.3 c0.2 -2.1 1.9 -13.2 3.8 -24.8 2 -11.5 4 -23.7 4.4 -27 1.6 -10.1 2.9 -16.5 4 -18.3 0.8 -1.4 0.9 -1.2 1 1 0 3.5 -8.4 54.1 -11.6 70.1 -0.8 4 -2.1 3.3 -1.6 -1z"/>
  <path d="M326.5 430.7 c-1.2 -2.9 0.1 -14.7 1.8 -16.4 1.4 -1.4 1.5 -1.2 1.1 2.3 -1.7 14 -2.1 15.8 -2.9 14.1z"/>
  <path d="M254.5 398.6 c-10.6 -4.9 -17.3 -15.7 -18.2 -29.5 -0.3 -4.3 -0.2 -10 0.3 -12.7 0.7 -4.4 0.9 -3.7 1.5 7.2 0.5 10.1 1.1 13.1 3.4 18.2 3.1 7 10.1 14.2 15.8 16.3 2 0.7 3.7 1.7 3.7 2.1 0 1.2 -1.1 1 -6.5 -1.6z"/>
  <path d="M246.5 364.3 c4.9 -7.3 6.9 -16.3 7 -31.8 0 -7.7 -0.4 -16.2 -0.8 -19 -0.6 -3.4 -0.5 -4.7 0.1 -4 1.3 1.3 3.2 14.8 3.2 22.9 0 8.1 -2.6 22.9 -4.7 26.9 -2.2 4.3 -5.5 8.7 -6.5 8.7 -0.5 0 0.3 -1.7 1.7 -3.7z"/>
  <path d="M539 371.9 c11.9 -6.5 17 -14.7 17.8 -28.5 0.6 -10.6 -2.1 -20.2 -9.8 -35.4 -10.5 -20.9 -15 -35.1 -17 -54 -0.6 -5.8 -1.7 -14 -2.5 -18.4 -1.9 -9.8 -1.9 -11.9 -0.1 -8.6 0.8 1.4 3 12.4 4.9 24.5 2 12.1 4.5 25.2 5.7 29 1.2 3.9 5.9 14.9 10.6 24.6 5.6 11.7 9 20 10 25 4 18.7 -2.2 35 -15.8 41.8 -7.9 4 -11 4 -3.8 0z"/>
  <path d="M527 361.8 c8.3 -9.9 11.2 -17 11.8 -29.1 0.4 -7.3 0.7 -9.5 1.5 -8.2 0.5 1 0.7 5.6 0.5 10.6 -0.6 10.5 -4.2 19.1 -10.9 26.4 -6.6 7.2 -8.8 7.5 -2.9 0.3z"/>
  <path d="M578.6 344.7 c10.7 -7.4 14.4 -14.5 15.2 -29.1 0.8 -15.8 -1.6 -25.4 -9.7 -38.6 -2.2 -3.7 -2.7 -5.5 -1.1 -4.5 1.7 1.1 14.3 20.8 17.4 27.5 4.4 9.3 4.9 19.8 1.2 27.3 -2.9 6 -5.3 8.5 -11.2 11.9 -2.3 1.3 -5.9 3.5 -8 4.9 -2.2 1.4 -5 2.9 -6.4 3.3 -1.6 0.5 -0.6 -0.6 2.6 -2.7z m20.5 -18.4 c1.8 -3.7 2.1 -5.7 1.7 -12.1 -0.3 -4.3 -1.4 -9.6 -2.4 -12 l-1.9 -4.3 0.3 11.3 c0.4 9.9 0.1 12.2 -2 18.6 l-2.5 7.2 2.4 -2.2 c1.2 -1.2 3.2 -4.1 4.4 -6.5z"/>
  <path d="M213.3 372.6 c-3.4 -1.8 -6.8 -3.9 -7.5 -4.7 -3.8 -3.9 -7.2 -9.4 -8.9 -14.6 l-1.9 -5.8 0.5 8 c0.3 4.4 0.8 9.1 1.1 10.5 0.5 2.3 0.4 2.3 -1.3 -0.5 -1.4 -2.4 -1.8 -5.1 -1.8 -13.6 0 -10.4 0.1 -10.7 4.2 -19 2.4 -4.6 8.1 -13.7 12.8 -20.2 4.6 -6.6 9.3 -14.4 10.5 -17.5 3.4 -9.4 3.9 -10.2 3.9 -6.7 0 1.7 -1.5 6.8 -3.5 11.5 -8 19.1 -12.4 40.7 -10.6 52.2 1.2 7.4 5.4 17.7 8.3 20.4 1.9 1.7 2.5 3.4 1.2 3.4 -0.5 0 -3.6 -1.5 -7 -3.4z m-1.8 -7.8 c-3.8 -8.3 -5.1 -18.4 -3.6 -28.1 0.7 -4.5 1.9 -10.8 2.7 -14.1 0.8 -3.2 1.3 -6 1.1 -6.2 -0.5 -0.5 -5.7 6.9 -9.8 14.1 -3.1 5.4 -3.4 6.7 -3.3 13.2 0.1 6 0.7 8.4 3.3 13.7 2.9 5.8 8.8 12.6 11.1 12.6 0.5 0 -0.2 -2.4 -1.5 -5.2z"/>
  <path d="M505 199.3 c0 -0.4 1.6 -1.8 3.5 -3 1.9 -1.3 5.8 -5.2 8.6 -8.8 2.8 -3.6 5.4 -6.4 5.6 -6.1 0.8 0.8 -7.6 12.4 -10.4 14.4 -4.1 2.8 -7.3 4.4 -7.3 3.5z"/>
  <path d="M305.1 173.3 c-0.2 -3.2 2.7 -17.5 3.8 -18.6 0.7 -0.7 -1.2 10.4 -3.2 18.8 -0.4 1.9 -0.5 1.9 -0.6 -0.2z"/>
  <path d="M515.4 138.8 c-2.1 -2.9 -8.5 -10.1 -14.3 -16 -5.8 -6 -9.9 -10.8 -9.2 -10.8 2.5 0 22.7 21.3 25.5 26.8 1.4 2.8 2.4 5.2 2.2 5.2 -0.2 0 -2.1 -2.4 -4.2 -5.2z"/>
  <path d="M310.6 134.5 c1.5 -6.6 7.8 -23.3 11.9 -31.5 7.3 -14.5 18.9 -28.4 27.3 -32.9 3.8 -2 3.7 -0.5 -0.1 1.8 -7.8 4.8 -18.5 18.5 -25.8 33.2 -4.4 8.8 -10.9 25 -10.9 27.2 0 0.7 -0.7 2.2 -1.5 3.3 -1.4 1.8 -1.5 1.7 -0.9 -1.1z"/>
  <path d="M420.6 91.6 c-3.3 -4.5 -8.2 -9.5 -11.9 -12.2 -6 -4.4 -23.1 -13.4 -25.5 -13.4 -2.1 0 -1.3 -1.6 1.3 -2.8 3.7 -1.7 5.3 -1.5 11.3 1.3 3.6 1.7 8.2 5.3 13.7 11 7.9 8.1 18.3 22 17.2 23.1 -0.3 0.3 -3 -2.9 -6.1 -7z m-19.9 -21.1 c-4.8 -4.1 -9.6 -6.5 -13.4 -6.5 -2.2 0 -1.4 0.6 3.9 2.9 3.7 1.6 8 3.8 9.5 5 4.3 3.1 4.2 2.4 0 -1.4z"/>
  <path d="M283 70.6 c3.1 -3.5 13.8 -11.4 20.8 -15.5 18.4 -10.8 43.7 -15.4 54.8 -10.1 5.7 2.8 5.2 3.4 -1.1 1.4 -3.6 -1.1 -7.7 -1.4 -14.5 -1.1 -16.7 0.7 -36.2 8.6 -53.3 21.5 -8.3 6.3 -9.8 7.2 -6.7 3.8z"/>
  <path d="M382.5 44.5 c3.4 -2.9 9.9 -5.4 17.2 -6.7 5.9 -1 8.3 -0.9 15.1 0.4 7.4 1.5 20.1 6.3 19.1 7.2 -0.2 0.2 -3.8 -0.7 -7.9 -2.2 -5.6 -1.9 -10.1 -2.7 -18.1 -3 -9.7 -0.4 -11.1 -0.2 -17 2.3 -3.5 1.4 -7.3 2.9 -8.4 3.1 l-2 0.5 2 -1.6z"/>
  <path d="M369.5 37.2 c-3.7 -2 -6.7 -2.8 -12.2 -3.1 -9.3 -0.4 -9.5 -2.1 -0.3 -2.1 7.3 0 14.9 2.7 17.9 6.4 1.8 2.2 0.4 1.9 -5.4 -1.2z"/>
  <path d="M107.1 413.9 c-0.1 -1.5 0.5 -6.2 1.3 -10.5 0.8 -4.4 1.7 -10.7 2.1 -14.2 0.8 -8.5 2.3 -12.4 2.4 -6.3 0.2 9.1 -5.5 39.1 -5.8 31z"/>
  <path d="M124 409.6 c0 -5.1 3.9 -24.8 5.2 -26.1 0.7 -0.7 0.8 0 0.4 2 -0.3 1.7 -1.5 8.4 -2.7 15 -1.1 6.6 -2.3 12.2 -2.5 12.4 -0.2 0.2 -0.4 -1.3 -0.4 -3.3z"/>
  <path d="M138.1 409 c-0.2 -3.9 5.2 -30 6.2 -30 0.6 0 0.7 2.1 0.3 4.8 -1 7.3 -6.4 28 -6.5 25.2z"/>
  <path d="M150.2 405.3 c0.3 -1 2 -8 3.9 -15.5 1.9 -7.6 3.7 -13.8 4.2 -13.8 1.3 0 0.8 3.2 -2.8 16.9 -1.9 7.4 -3.5 13.6 -3.5 13.8 0 0.2 -0.5 0.3 -1.1 0.3 -0.6 0 -0.9 -0.8 -0.7 -1.7z"/>
  <path d="M355.1 340.7 c-1.3 -0.6 -2.2 -1.6 -2 -2.2 0.5 -1.2 0.7 -1.2 8.9 1.3 l6.5 2 -5.5 0.1 c-3 0 -6.6 -0.5 -7.9 -1.2z"/>
  <path d="M378.5 340.3 c0.6 -0.5 3.7 -2 7 -3.2 3.3 -1.2 7.4 -3.3 9.2 -4.7 3.6 -2.7 5.3 -3.1 5.3 -0.9 0 1.8 -13.5 8.4 -18.7 9.2 -2.5 0.4 -3.4 0.2 -2.8 -0.4z"/>
  <path d="M304.6 311 c0.4 -1.4 1.3 -3.8 2 -5.5 1.1 -2.4 1.3 -2.5 0.8 -0.5 -0.4 1.4 -1.3 3.9 -2 5.5 -1.1 2.4 -1.3 2.5 -0.8 0.5z"/>
  <path d="M314.5 311 c1.4 -4.7 2.6 -7.3 3 -6.8 0.3 0.3 0 2 -0.6 3.9 -1.4 4.1 -3.5 6.7 -2.4 2.9z"/>
  <path d="M355 306.1 c-1.3 -2.6 -1.3 -3.1 0.5 -3.1 0.9 0 1.5 0.9 1.5 2.5 0 3 -0.6 3.2 -2 0.6z"/>
  <path d="M323.1 304.3 c0 -0.4 0.4 -1.7 0.9 -2.8 0.8 -1.9 0.9 -1.9 0.9 0.2 0.1 1.2 -0.3 2.5 -0.9 2.8 -0.5 0.3 -1 0.3 -0.9 -0.2z"/>
  <path d="M426 298.7 c0 -1 6.9 -14.7 7.4 -14.7 0.6 0 -5.4 13.3 -6.5 14.5 -0.5 0.5 -0.9 0.6 -0.9 0.2z"/>
  <path d="M420 296.7 c0 -1.1 5.9 -12.7 6.5 -12.7 0.3 0 -0.2 1.7 -1 3.7 -1.7 4.1 -5.5 10.3 -5.5 9z"/>
  <path d="M435.1 293.5 c0 -0.5 0.6 -2.1 1.4 -3.5 0.8 -1.4 1.4 -2 1.4 -1.5 0 0.6 -0.6 2.1 -1.4 3.5 -0.8 1.4 -1.4 2.1 -1.4 1.5z"/>
  <path d="M295.5 290.9 c-1 -1.5 0.3 -2.5 1.6 -1.2 0.7 0.7 0.7 1.3 0.1 1.7 -0.6 0.3 -1.4 0.1 -1.7 -0.5z"/>
  <path d="M412.5 287 c0.9 -1.6 1.8 -3 2.1 -3 0.2 0 -0.2 1.4 -1.1 3 -0.9 1.7 -1.8 3 -2.1 3 -0.2 0 0.2 -1.3 1.1 -3z"/>
  <path d="M391.7 224.8 c2 -2.3 11 -6.9 16.7 -8.4 9.1 -2.4 23.2 -1.2 29.2 2.5 1.8 1.1 1.8 1.2 -0.1 0.7 -16.4 -4.2 -27.7 -3.1 -42 4.2 -2.9 1.4 -4.5 1.9 -3.8 1z"/>
  <path d="M133.4 344.5 c0.3 -8.8 3.8 -20.4 7.5 -25.1 2.6 -3.3 2.7 -2.5 0.2 2.5 -3 5.8 -6 15.9 -7 23.6 l-1 7 0.3 -8z"/>
  <path d="M101.5 329.3 c0.6 -0.5 4.9 -4 9.8 -7.7 4.8 -3.7 11.5 -9.3 14.9 -12.4 3.4 -3.1 5.6 -4.7 5 -3.6 -2.1 4 -18 17.3 -26.7 22.4 -2.2 1.3 -3.5 1.9 -3 1.3z"/>
  <path d="M91.5 273.9 c-8.2 -16.2 -10.2 -21.5 -5.7 -15.2 1.1 1.5 4.3 7.3 7.3 12.8 2.9 5.5 6.1 11.2 7.1 12.7 1.9 2.8 2.4 6.8 0.9 6.8 -0.6 0 -4.9 -7.7 -9.6 -17.1z"/>
  <path d="M482 286.3 c0 -1 1.8 -4.4 4 -7.7 4.5 -6.6 4.6 -7.2 2.5 -12.3 -1 -2.3 -1.3 -4.9 -0.9 -6.7 1.6 -7.3 12.7 -22.6 16.4 -22.6 3.7 0 10 10.4 10 16.7 0 3.2 -1.9 0.9 -3 -3.7 -1.5 -6.2 -4.5 -10.2 -7.3 -9.8 -2 0.3 -5.6 4.6 -10.4 12.2 l-2.2 3.6 4 0 c2.9 0 4.7 0.7 6.6 2.6 3.4 3.4 2.2 4.3 -1.6 1.1 -3.4 -2.8 -7.3 -2.6 -9.6 0.6 -1.2 1.7 -1.2 2.5 0 5.5 2.4 5.7 1.9 8.6 -2.5 13.7 -2.2 2.5 -4 4.7 -4 4.9 0 0.1 3.2 -0.6 7.1 -1.5 8.4 -2.2 12.2 -4.7 16.1 -10.8 1.9 -3 2.7 -3.7 2.3 -2.1 -1.1 4 -5.5 9.8 -8.9 11.9 -1.7 1 -5.1 2.2 -7.6 2.6 -2.5 0.4 -5.5 1.3 -6.7 2.1 -3 1.9 -4.3 1.8 -4.3 -0.3z"/>
  <path d="M497.4 250.3 c0.7 -0.7 8.7 -0.5 9.5 0.3 0.2 0.2 -2 0.4 -4.9 0.4 -2.9 0 -5 -0.3 -4.6 -0.7z"/>
  <path d="M309.1 273.3 c-2.6 -2.2 -3.9 -8.6 -2.1 -10.8 1.7 -2.1 5.6 -1.9 8 0.5 3.6 3.6 1.9 12 -2.5 12 -0.7 0 -2.2 -0.8 -3.4 -1.7z m5.9 -4.4 c0 -6.4 -5.2 -9.9 -6.6 -4.3 -1 3.8 1 7.4 4.1 7.4 2.1 0 2.5 -0.5 2.5 -3.1z"/>
  <path d="M422.1 256.4 c-1.2 -1.5 -2.1 -4.1 -2.1 -5.8 0 -3.3 2.4 -7.6 4.1 -7.6 0.6 0 0.3 1 -0.5 2.2 -4.1 5.8 1.5 15.3 6.2 10.6 1.7 -1.7 1.5 -7.9 -0.4 -10.6 -0.8 -1.2 -1.1 -2.2 -0.5 -2.2 1.9 0 4.1 4.4 4.1 8.2 0 7.2 -6.8 10.4 -10.9 5.2z"/>
  <path d="M627.7 1338.5 c4.7 -3.4 9 -4.3 23.3 -5 11.9 -0.5 15.5 -0.3 20 1 3 0.9 8.7 2.4 12.5 3.5 l7 1.8 -7.1 0.1 c-4.1 0.1 -9 -0.5 -11.4 -1.4 -2.7 -0.9 -7.9 -1.5 -14.2 -1.5 -8.8 0 -9.9 0.2 -9.4 1.6 0.5 1.4 0.2 1.5 -2.6 0.8 -3.8 -0.9 -10.5 -0.9 -16.3 0.1 -3.9 0.7 -3.9 0.6 -1.8 -1z"/>
  <path d="M399.2 1322.8 c-3.9 -5.8 -6.4 -10.7 -6 -12 0.2 -0.6 2.5 2.6 5.2 7.1 5.2 8.8 5.7 12.1 0.8 4.9z"/>
 </g>
</svg>